<svg  viewBox="0 0 25 17" fill="none" xmlns="http://www.w3.org/2000/svg">
<path d="M0.102539 1.57026H24.8965C24.6428 0.837012 23.9467 0.310303 23.1272 0.310303H1.87188C1.05234 0.310303 0.356299 0.837012 0.102539 1.57026Z" fill="#FF4B55"/>
<path d="M25 5.35005H0V6.60996H25V5.35005Z" fill="#FF4B55"/>
<path d="M25 2.83003H0V4.08994H25V2.83003Z" fill="#FF4B55"/>
<path d="M0 8.69888C0 8.93691 0.193018 9.12993 0.431055 9.12993H25V7.86997H0V8.69888Z" fill="#FF4B55"/>
<path d="M25 12.9101H0V14.1701H25V12.9101Z" fill="#FF4B55"/>
<path d="M24.8966 15.4297H0.102539C0.356299 16.1629 1.05239 16.6896 1.87188 16.6896H23.1272C23.9468 16.6896 24.6428 16.1629 24.8966 15.4297Z" fill="#FF4B55"/>
<path d="M25 10.3901H0V11.65H25V10.3901Z" fill="#FF4B55"/>
<path d="M0.431055 9.12993L11.2069 9.12998C11.445 9.12998 11.638 8.93696 11.638 8.69893V0.741357C11.638 0.503271 11.445 0.310303 11.2069 0.310303H1.87188C0.837793 0.310352 0 1.14858 0 2.18267V8.69888C0 8.93691 0.193018 9.12993 0.431055 9.12993Z" fill="#41479B"/>
<path d="M1.21076 1.29977L1.30617 1.5859L1.60778 1.5882C1.64684 1.58854 1.66301 1.63834 1.63161 1.66154L1.38898 1.84069L1.48 2.12824C1.49181 2.16544 1.44938 2.1963 1.4176 2.17355L1.17223 1.99821L0.926873 2.1736C0.895086 2.19635 0.852752 2.16549 0.864471 2.12828L0.955486 1.84074L0.712859 1.66159C0.681463 1.63834 0.697625 1.58854 0.736687 1.58825L1.0383 1.58595L1.13371 1.29982C1.14601 1.26271 1.19836 1.26271 1.21076 1.29977Z" fill="#F5F5F5"/>
<path d="M1.21076 2.79642L1.30617 3.08256L1.60778 3.08485C1.64684 3.08519 1.66301 3.13495 1.63161 3.15819L1.38898 3.33739L1.48 3.62494C1.49181 3.66215 1.44938 3.69301 1.4176 3.67025L1.17223 3.49491L0.926873 3.6703C0.895086 3.693 0.852752 3.66219 0.864471 3.62499L0.955486 3.33744L0.712859 3.15824C0.681463 3.135 0.697625 3.08524 0.736687 3.0849L1.0383 3.0826L1.13371 2.79647C1.14601 2.75941 1.19836 2.75941 1.21076 2.79642Z" fill="#F5F5F5"/>
<path d="M1.21076 4.29325L1.30617 4.57938L1.60778 4.58168C1.64684 4.58202 1.66301 4.63177 1.63161 4.65502L1.38898 4.83422L1.48 5.12176C1.49181 5.15897 1.44938 5.18983 1.4176 5.16708L1.17223 4.99174L0.926873 5.16713C0.895086 5.18983 0.852752 5.15907 0.864471 5.12181L0.955486 4.83426L0.712859 4.65507C0.681463 4.63182 0.697625 4.58207 0.736687 4.58173L1.0383 4.57943L1.13371 4.2933C1.14601 4.25619 1.19836 4.25619 1.21076 4.29325Z" fill="#F5F5F5"/>
<path d="M1.21076 5.79003L1.30617 6.07616L1.60778 6.07845C1.64684 6.0788 1.66301 6.1286 1.63161 6.15179L1.38898 6.33099L1.48 6.61854C1.49181 6.65575 1.44938 6.68661 1.4176 6.66385L1.17223 6.48851L0.926873 6.6639C0.895086 6.68661 0.852752 6.6558 0.864471 6.61859L0.955486 6.33104L0.712859 6.15184C0.681463 6.1287 0.697625 6.07885 0.736687 6.0785L1.0383 6.07621L1.13371 5.79008C1.14601 5.75297 1.19836 5.75297 1.21076 5.79003Z" fill="#F5F5F5"/>
<path d="M1.21076 7.2868L1.30617 7.57294L1.60778 7.57523C1.64684 7.57557 1.66301 7.62533 1.63161 7.64857L1.38898 7.82777L1.48 8.11532C1.49181 8.15253 1.44938 8.18339 1.4176 8.16063L1.17223 7.98529L0.926873 8.16068C0.895086 8.18339 0.852752 8.15258 0.864471 8.11537L0.955486 7.82782L0.712859 7.64862C0.681463 7.62538 0.697625 7.57562 0.736687 7.57528L1.0383 7.57299L1.13371 7.28685C1.14601 7.24979 1.19836 7.24979 1.21076 7.2868Z" fill="#F5F5F5"/>
<path d="M2.37287 2.0335L2.46828 2.31963L2.76989 2.32192C2.80895 2.32227 2.82512 2.37207 2.79372 2.39526L2.55109 2.57446L2.64211 2.86201C2.65392 2.89922 2.61149 2.93008 2.57971 2.90732L2.33434 2.73193L2.08898 2.90732C2.0572 2.93003 2.01486 2.89922 2.02658 2.86201L2.1176 2.57446L1.87497 2.39526C1.84357 2.37202 1.85973 2.32227 1.8988 2.32192L2.20041 2.31963L2.29582 2.0335C2.30812 1.99648 2.36052 1.99648 2.37287 2.0335Z" fill="#F5F5F5"/>
<path d="M2.37287 3.53036L2.46828 3.81649L2.76989 3.81879C2.80895 3.81913 2.82512 3.86893 2.79372 3.89213L2.55109 4.07133L2.64211 4.35887C2.65392 4.39608 2.61149 4.42694 2.57971 4.40419L2.33434 4.2288L2.08898 4.40419C2.0572 4.42689 2.01486 4.39613 2.02658 4.35887L2.1176 4.07133L1.87497 3.89213C1.84357 3.86898 1.85973 3.81913 1.8988 3.81879L2.20041 3.81649L2.29582 3.53036C2.30812 3.4933 2.36052 3.4933 2.37287 3.53036Z" fill="#F5F5F5"/>
<path d="M2.37287 5.02706L2.46828 5.3132L2.76989 5.31549C2.80895 5.31583 2.82512 5.36559 2.79372 5.38883L2.55109 5.56803L2.64211 5.85558C2.65392 5.89279 2.61149 5.92364 2.57971 5.90089L2.33434 5.7255L2.08898 5.90089C2.0572 5.9236 2.01486 5.89279 2.02658 5.85558L2.1176 5.56803L1.87497 5.38883C1.84357 5.36559 1.85973 5.31583 1.8988 5.31549L2.20041 5.3132L2.29582 5.02706C2.30812 4.99 2.36052 4.99 2.37287 5.02706Z" fill="#F5F5F5"/>
<path d="M2.37287 6.52385L2.46828 6.80999L2.76989 6.81228C2.80895 6.81262 2.82512 6.86238 2.79372 6.88562L2.55109 7.06482L2.64211 7.35237C2.65392 7.38957 2.61149 7.42043 2.57971 7.39768L2.33434 7.22229L2.08898 7.39768C2.0572 7.42043 2.01486 7.38957 2.02658 7.35237L2.1176 7.06482L1.87497 6.88562C1.84357 6.86238 1.85973 6.81262 1.8988 6.81228L2.20041 6.80999L2.29582 6.52385C2.30812 6.48684 2.36052 6.48684 2.37287 6.52385Z" fill="#F5F5F5"/>
<path d="M3.534 1.29965L3.62941 1.58578L3.93102 1.58807C3.97009 1.58842 3.98625 1.63822 3.95485 1.66141L3.71222 1.84056L3.80324 2.12811C3.81506 2.16532 3.77262 2.19618 3.74084 2.17343L3.49548 1.99803L3.25011 2.17343C3.21833 2.19618 3.17599 2.16532 3.18771 2.12811L3.27873 1.84056L3.0361 1.66141C3.00471 1.63817 3.02087 1.58837 3.05993 1.58807L3.36154 1.58578L3.45695 1.29965C3.46926 1.26259 3.52165 1.26259 3.534 1.29965Z" fill="#F5F5F5"/>
<path d="M3.534 2.79644L3.62941 3.08257L3.93102 3.08486C3.97009 3.08521 3.98625 3.13496 3.95485 3.1582L3.71222 3.3374L3.80324 3.62495C3.81506 3.66216 3.77262 3.69302 3.74084 3.67026L3.49548 3.49487L3.25011 3.67026C3.21833 3.69297 3.17599 3.66216 3.18771 3.62495L3.27873 3.3374L3.0361 3.1582C3.00471 3.13496 3.02087 3.08521 3.05993 3.08486L3.36154 3.08257L3.45695 2.79644C3.46926 2.75942 3.52165 2.75942 3.534 2.79644Z" fill="#F5F5F5"/>
<path d="M3.534 4.2933L3.62941 4.57943L3.93102 4.58173C3.97009 4.58207 3.98625 4.63182 3.95485 4.65507L3.71222 4.83427L3.80324 5.12181C3.81506 5.15902 3.77262 5.18988 3.74084 5.16713L3.49548 4.99174L3.25011 5.16713C3.21833 5.18983 3.17599 5.15907 3.18771 5.12181L3.27873 4.83427L3.0361 4.65507C3.00471 4.63182 3.02087 4.58207 3.05993 4.58173L3.36154 4.57943L3.45695 4.2933C3.46926 4.25624 3.52165 4.25624 3.534 4.2933Z" fill="#F5F5F5"/>
<path d="M3.534 5.79L3.62941 6.07614L3.93102 6.07843C3.97009 6.07877 3.98625 6.12858 3.95485 6.15177L3.71222 6.33097L3.80324 6.61852C3.81506 6.65573 3.77262 6.68658 3.74084 6.66383L3.49548 6.48844L3.25011 6.66383C3.21833 6.68654 3.17599 6.65573 3.18771 6.61852L3.27873 6.33097L3.0361 6.15177C3.00471 6.12863 3.02087 6.07877 3.05993 6.07843L3.36154 6.07614L3.45695 5.79C3.46926 5.75294 3.52165 5.75294 3.534 5.79Z" fill="#F5F5F5"/>
<path d="M3.534 7.28679L3.62941 7.57292L3.93102 7.57522C3.97009 7.57556 3.98625 7.62532 3.95485 7.64856L3.71222 7.82776L3.80324 8.11531C3.81506 8.15251 3.77262 8.18337 3.74084 8.16062L3.49548 7.98523L3.25011 8.16062C3.21833 8.18332 3.17599 8.15251 3.18771 8.11531L3.27873 7.82776L3.0361 7.64856C3.00471 7.62532 3.02087 7.57556 3.05993 7.57522L3.36154 7.57292L3.45695 7.28679C3.46926 7.24978 3.52165 7.24978 3.534 7.28679Z" fill="#F5F5F5"/>
<path d="M4.69611 2.03348L4.79152 2.31962L5.09313 2.32191C5.1322 2.32225 5.14836 2.37206 5.11696 2.39525L4.87433 2.57445L4.96535 2.862C4.97717 2.89921 4.93473 2.93007 4.90295 2.90731L4.65759 2.73192L4.41222 2.90731C4.38044 2.93002 4.3381 2.89921 4.34982 2.862L4.44084 2.57445L4.19821 2.39525C4.16681 2.37201 4.18298 2.32225 4.22204 2.32191L4.52365 2.31962L4.61906 2.03348C4.63132 1.99647 4.68376 1.99647 4.69611 2.03348Z" fill="#F5F5F5"/>
<path d="M4.69611 3.53031L4.79152 3.81644L5.09313 3.81874C5.1322 3.81908 5.14836 3.86888 5.11696 3.89208L4.87433 4.07128L4.96535 4.35883C4.97717 4.39603 4.93473 4.42689 4.90295 4.40414L4.65759 4.22875L4.41222 4.40414C4.38044 4.42684 4.3381 4.39608 4.34982 4.35883L4.44084 4.07128L4.19821 3.89208C4.16681 3.86893 4.18298 3.81908 4.22204 3.81874L4.52365 3.81644L4.61906 3.53031C4.63132 3.49325 4.68376 3.49325 4.69611 3.53031Z" fill="#F5F5F5"/>
<path d="M4.69611 5.02709L4.79152 5.31322L5.09313 5.31552C5.1322 5.31586 5.14836 5.36561 5.11696 5.38885L4.87433 5.56805L4.96535 5.8556C4.97717 5.89281 4.93473 5.92367 4.90295 5.90092L4.65759 5.72552L4.41222 5.90092C4.38044 5.92362 4.3381 5.89281 4.34982 5.8556L4.44084 5.56805L4.19821 5.38885C4.16681 5.36561 4.18298 5.31586 4.22204 5.31552L4.52365 5.31322L4.61906 5.02709C4.63132 4.99003 4.68376 4.99003 4.69611 5.02709Z" fill="#F5F5F5"/>
<path d="M4.69611 6.52386L4.79152 6.81L5.09313 6.81229C5.1322 6.81263 5.14836 6.86239 5.11696 6.88563L4.87433 7.06483L4.96535 7.35238C4.97717 7.38959 4.93473 7.42045 4.90295 7.39769L4.65759 7.2223L4.41222 7.39769C4.38044 7.42045 4.3381 7.38959 4.34982 7.35238L4.44084 7.06483L4.19821 6.88563C4.16681 6.86239 4.18298 6.81263 4.22204 6.81229L4.52365 6.81L4.61906 6.52386C4.63132 6.48685 4.68376 6.48685 4.69611 6.52386Z" fill="#F5F5F5"/>
<path d="M5.85827 1.29964L5.95368 1.58577L6.25529 1.58807C6.29435 1.58841 6.31052 1.63821 6.27912 1.66141L6.03649 1.84056L6.12751 2.12811C6.13932 2.16531 6.09689 2.19617 6.06511 2.17342L5.81969 1.99808L5.57433 2.17347C5.54255 2.19622 5.50021 2.16536 5.51193 2.12816L5.60295 1.84061L5.36032 1.66146C5.32892 1.63821 5.34509 1.58841 5.38415 1.58812L5.68576 1.58582L5.78117 1.29969C5.79352 1.26258 5.84592 1.26258 5.85827 1.29964Z" fill="#F5F5F5"/>
<path d="M5.85827 2.79644L5.95368 3.08257L6.25529 3.08486C6.29435 3.08521 6.31052 3.13496 6.27912 3.1582L6.03649 3.3374L6.12751 3.62495C6.13932 3.66216 6.09689 3.69302 6.06511 3.67026L5.81969 3.49487L5.57433 3.67026C5.54255 3.69297 5.50021 3.66216 5.51193 3.62495L5.60295 3.3374L5.36032 3.1582C5.32892 3.13496 5.34509 3.08521 5.38415 3.08486L5.68576 3.08257L5.78117 2.79644C5.79352 2.75942 5.84592 2.75942 5.85827 2.79644Z" fill="#F5F5F5"/>
<path d="M5.85827 4.2933L5.95368 4.57944L6.25529 4.58173C6.29435 4.58207 6.31052 4.63183 6.27912 4.65507L6.03649 4.83427L6.12751 5.12182C6.13932 5.15903 6.09689 5.18989 6.06511 5.16713L5.81969 4.99169L5.57433 5.16708C5.54255 5.18979 5.50021 5.15898 5.51193 5.12177L5.60295 4.83422L5.36032 4.65502C5.32892 4.63178 5.34509 4.58203 5.38415 4.58168L5.68576 4.57939L5.78117 4.29326C5.79352 4.25624 5.84592 4.25624 5.85827 4.2933Z" fill="#F5F5F5"/>
<path d="M5.85827 5.79L5.95368 6.07614L6.25529 6.07843C6.29435 6.07877 6.31052 6.12858 6.27912 6.15177L6.03649 6.33097L6.12751 6.61852C6.13932 6.65573 6.09689 6.68658 6.06511 6.66383L5.81969 6.48844L5.57433 6.66383C5.54255 6.68654 5.50021 6.65573 5.51193 6.61852L5.60295 6.33097L5.36032 6.15177C5.32892 6.12863 5.34509 6.07877 5.38415 6.07843L5.68576 6.07614L5.78117 5.79C5.79352 5.75294 5.84592 5.75294 5.85827 5.79Z" fill="#F5F5F5"/>
<path d="M5.85827 7.28679L5.95368 7.57292L6.25529 7.57522C6.29435 7.57556 6.31052 7.62532 6.27912 7.64856L6.03649 7.82776L6.12751 8.11531C6.13932 8.15251 6.09689 8.18337 6.06511 8.16062L5.81969 7.98523L5.57433 8.16062C5.54255 8.18332 5.50021 8.15251 5.51193 8.11531L5.60295 7.82776L5.36032 7.64856C5.32892 7.62532 5.34509 7.57556 5.38415 7.57522L5.68576 7.57292L5.78117 7.28679C5.79352 7.24978 5.84592 7.24978 5.85827 7.28679Z" fill="#F5F5F5"/>
<path d="M7.01935 2.0335L7.11476 2.31963L7.41638 2.32192C7.45544 2.32227 7.4716 2.37207 7.4402 2.39526L7.19758 2.57446L7.28859 2.86201C7.30041 2.89922 7.25798 2.93008 7.22619 2.90732L6.98083 2.73193L6.73547 2.90732C6.70368 2.93003 6.66135 2.89922 6.67306 2.86201L6.76408 2.57446L6.52145 2.39526C6.49006 2.37202 6.50622 2.32227 6.54528 2.32192L6.84689 2.31963L6.9423 2.0335C6.95466 1.99648 7.007 1.99648 7.01935 2.0335Z" fill="#F5F5F5"/>
<path d="M7.01935 3.53036L7.11476 3.81649L7.41638 3.81879C7.45544 3.81913 7.4716 3.86893 7.4402 3.89213L7.19758 4.07133L7.28859 4.35887C7.30041 4.39608 7.25798 4.42694 7.22619 4.40419L6.98083 4.2288L6.73547 4.40419C6.70368 4.42689 6.66135 4.39613 6.67306 4.35887L6.76408 4.07133L6.52145 3.89213C6.49006 3.86898 6.50622 3.81913 6.54528 3.81879L6.84689 3.81649L6.9423 3.53036C6.95466 3.4933 7.007 3.4933 7.01935 3.53036Z" fill="#F5F5F5"/>
<path d="M7.01935 5.02706L7.11476 5.3132L7.41638 5.31549C7.45544 5.31583 7.4716 5.36559 7.4402 5.38883L7.19758 5.56803L7.28859 5.85558C7.30041 5.89279 7.25798 5.92364 7.22619 5.90089L6.98083 5.7255L6.73547 5.90089C6.70368 5.9236 6.66135 5.89279 6.67306 5.85558L6.76408 5.56803L6.52145 5.38883C6.49006 5.36559 6.50622 5.31583 6.54528 5.31549L6.84689 5.3132L6.9423 5.02706C6.95466 4.99 7.007 4.99 7.01935 5.02706Z" fill="#F5F5F5"/>
<path d="M7.01935 6.52385L7.11476 6.80999L7.41638 6.81228C7.45544 6.81262 7.4716 6.86238 7.4402 6.88562L7.19758 7.06482L7.28859 7.35237C7.30041 7.38957 7.25798 7.42043 7.22619 7.39768L6.98083 7.22229L6.73547 7.39768C6.70368 7.42043 6.66135 7.38957 6.67306 7.35237L6.76408 7.06482L6.52145 6.88562C6.49006 6.86238 6.50622 6.81262 6.54528 6.81228L6.84689 6.80999L6.9423 6.52385C6.95466 6.48684 7.007 6.48684 7.01935 6.52385Z" fill="#F5F5F5"/>
<path d="M8.18146 1.29965L8.27687 1.58578L8.57848 1.58807C8.61755 1.58842 8.63371 1.63822 8.60231 1.66141L8.35969 1.84056L8.4507 2.12811C8.46252 2.16532 8.42009 2.19618 8.3883 2.17342L8.14294 1.99803L7.89758 2.17342C7.86579 2.19618 7.82346 2.16532 7.83517 2.12811L7.92619 1.84056L7.68356 1.66141C7.65217 1.63817 7.66833 1.58837 7.70739 1.58807L8.009 1.58578L8.10441 1.29965C8.11667 1.26259 8.16911 1.26259 8.18146 1.29965Z" fill="#F5F5F5"/>
<path d="M8.18146 2.79642L8.27687 3.08256L8.57848 3.08485C8.61755 3.08519 8.63371 3.13495 8.60231 3.15819L8.35969 3.33739L8.4507 3.62494C8.46252 3.66215 8.42009 3.69301 8.3883 3.67025L8.14294 3.49486L7.89758 3.67025C7.86579 3.69296 7.82346 3.66215 7.83517 3.62494L7.92619 3.33739L7.68356 3.15819C7.65217 3.13495 7.66833 3.08519 7.70739 3.08485L8.009 3.08256L8.10441 2.79642C8.11667 2.75941 8.16911 2.75941 8.18146 2.79642Z" fill="#F5F5F5"/>
<path d="M8.18146 4.29325L8.27687 4.57938L8.57848 4.58168C8.61755 4.58202 8.63371 4.63178 8.60231 4.65502L8.35969 4.83422L8.4507 5.12177C8.46252 5.15897 8.42009 5.18983 8.3883 5.16708L8.14294 4.99169L7.89758 5.16708C7.86579 5.18978 7.82346 5.15902 7.83517 5.12177L7.92619 4.83422L7.68356 4.65502C7.65217 4.63178 7.66833 4.58202 7.70739 4.58168L8.009 4.57938L8.10441 4.29325C8.11667 4.25619 8.16911 4.25619 8.18146 4.29325Z" fill="#F5F5F5"/>
<path d="M8.18146 5.79003L8.27687 6.07616L8.57848 6.07845C8.61755 6.0788 8.63371 6.1286 8.60231 6.15179L8.35969 6.33099L8.4507 6.61854C8.46252 6.65575 8.42009 6.68661 8.3883 6.66385L8.14294 6.48846L7.89758 6.66385C7.86579 6.68656 7.82346 6.65575 7.83517 6.61854L7.92619 6.33099L7.68356 6.15179C7.65217 6.12865 7.66833 6.0788 7.70739 6.07845L8.009 6.07616L8.10441 5.79003C8.11667 5.75297 8.16911 5.75297 8.18146 5.79003Z" fill="#F5F5F5"/>
<path d="M8.18146 7.2868L8.27687 7.57294L8.57848 7.57523C8.61755 7.57557 8.63371 7.62533 8.60231 7.64857L8.35969 7.82777L8.4507 8.11532C8.46252 8.15253 8.42009 8.18339 8.3883 8.16063L8.14294 7.98524L7.89758 8.16063C7.86579 8.18334 7.82346 8.15253 7.83517 8.11532L7.92619 7.82777L7.68356 7.64857C7.65217 7.62533 7.66833 7.57557 7.70739 7.57523L8.009 7.57294L8.10441 7.2868C8.11667 7.24979 8.16911 7.24979 8.18146 7.2868Z" fill="#F5F5F5"/>
<path d="M9.34357 2.0335L9.43898 2.31963L9.74059 2.32192C9.77966 2.32227 9.79582 2.37207 9.76442 2.39526L9.5218 2.57446L9.61281 2.86201C9.62463 2.89922 9.5822 2.93008 9.55041 2.90732L9.30505 2.73193L9.05969 2.90732C9.0279 2.93003 8.98556 2.89922 8.99728 2.86201L9.0883 2.57446L8.84567 2.39526C8.81428 2.37202 8.83044 2.32227 8.8695 2.32192L9.17111 2.31963L9.26652 2.0335C9.27883 1.99648 9.33122 1.99648 9.34357 2.0335Z" fill="#F5F5F5"/>
<path d="M9.34357 3.53036L9.43898 3.81649L9.74059 3.81879C9.77966 3.81913 9.79582 3.86893 9.76442 3.89213L9.5218 4.07133L9.61281 4.35887C9.62463 4.39608 9.5822 4.42694 9.55041 4.40419L9.30505 4.2288L9.05969 4.40419C9.0279 4.42689 8.98556 4.39613 8.99728 4.35887L9.0883 4.07133L8.84567 3.89213C8.81428 3.86898 8.83044 3.81913 8.8695 3.81879L9.17111 3.81649L9.26652 3.53036C9.27883 3.4933 9.33122 3.4933 9.34357 3.53036Z" fill="#F5F5F5"/>
<path d="M9.34357 5.02706L9.43898 5.3132L9.74059 5.31549C9.77966 5.31583 9.79582 5.36559 9.76442 5.38883L9.5218 5.56803L9.61281 5.85558C9.62463 5.89279 9.5822 5.92364 9.55041 5.90089L9.30505 5.7255L9.05969 5.90089C9.0279 5.9236 8.98556 5.89279 8.99728 5.85558L9.0883 5.56803L8.84567 5.38883C8.81428 5.36559 8.83044 5.31583 8.8695 5.31549L9.17111 5.3132L9.26652 5.02706C9.27883 4.99 9.33122 4.99 9.34357 5.02706Z" fill="#F5F5F5"/>
<path d="M9.34357 6.52385L9.43898 6.80999L9.74059 6.81228C9.77966 6.81262 9.79582 6.86238 9.76442 6.88562L9.5218 7.06482L9.61281 7.35237C9.62463 7.38957 9.5822 7.42043 9.55041 7.39768L9.30505 7.22229L9.05969 7.39768C9.0279 7.42043 8.98556 7.38957 8.99728 7.35237L9.0883 7.06482L8.84567 6.88562C8.81428 6.86238 8.83044 6.81262 8.8695 6.81228L9.17111 6.80999L9.26652 6.52385C9.27883 6.48684 9.33122 6.48684 9.34357 6.52385Z" fill="#F5F5F5"/>
<path d="M10.5047 1.29965L10.6001 1.58578L10.9017 1.58807C10.9408 1.58842 10.957 1.63822 10.9256 1.66141L10.6829 1.84056L10.7739 2.12811C10.7858 2.16532 10.7433 2.19618 10.7115 2.17343L10.4662 1.99803L10.2208 2.17343C10.189 2.19618 10.1467 2.16532 10.1584 2.12811L10.2494 1.84056L10.0068 1.66141C9.97541 1.63817 9.99157 1.58837 10.0306 1.58807L10.3322 1.58578L10.4277 1.29965C10.44 1.26259 10.4923 1.26259 10.5047 1.29965Z" fill="#F5F5F5"/>
<path d="M10.5047 2.79644L10.6001 3.08257L10.9017 3.08486C10.9408 3.08521 10.957 3.13496 10.9256 3.1582L10.6829 3.3374L10.7739 3.62495C10.7858 3.66216 10.7433 3.69302 10.7115 3.67026L10.4662 3.49487L10.2208 3.67026C10.189 3.69297 10.1467 3.66216 10.1584 3.62495L10.2494 3.3374L10.0068 3.1582C9.97541 3.13496 9.99157 3.08521 10.0306 3.08486L10.3322 3.08257L10.4277 2.79644C10.44 2.75942 10.4923 2.75942 10.5047 2.79644Z" fill="#F5F5F5"/>
<path d="M10.5047 4.2933L10.6001 4.57943L10.9017 4.58173C10.9408 4.58207 10.957 4.63182 10.9256 4.65507L10.6829 4.83427L10.7739 5.12181C10.7858 5.15902 10.7433 5.18988 10.7115 5.16713L10.4662 4.99174L10.2208 5.16713C10.189 5.18983 10.1467 5.15907 10.1584 5.12181L10.2494 4.83427L10.0068 4.65507C9.97541 4.63182 9.99157 4.58207 10.0306 4.58173L10.3322 4.57943L10.4277 4.2933C10.44 4.25624 10.4923 4.25624 10.5047 4.2933Z" fill="#F5F5F5"/>
<path d="M10.5047 5.79L10.6001 6.07614L10.9017 6.07843C10.9408 6.07877 10.957 6.12858 10.9256 6.15177L10.6829 6.33097L10.7739 6.61852C10.7858 6.65573 10.7433 6.68658 10.7115 6.66383L10.4662 6.48844L10.2208 6.66383C10.189 6.68654 10.1467 6.65573 10.1584 6.61852L10.2494 6.33097L10.0068 6.15177C9.97541 6.12863 9.99157 6.07877 10.0306 6.07843L10.3322 6.07614L10.4277 5.79C10.44 5.75294 10.4923 5.75294 10.5047 5.79Z" fill="#F5F5F5"/>
<path d="M10.5047 7.28679L10.6001 7.57292L10.9017 7.57522C10.9408 7.57556 10.957 7.62532 10.9256 7.64856L10.6829 7.82776L10.7739 8.11531C10.7858 8.15251 10.7433 8.18337 10.7115 8.16062L10.4662 7.98523L10.2208 8.16062C10.189 8.18332 10.1467 8.15251 10.1584 8.11531L10.2494 7.82776L10.0068 7.64856C9.97541 7.62532 9.99157 7.57556 10.0306 7.57522L10.3322 7.57292L10.4277 7.28679C10.44 7.24978 10.4923 7.24978 10.5047 7.28679Z" fill="#F5F5F5"/>
</svg>
