<svg width="18" height="16" viewBox="0 0 18 16" fill="none" xmlns="http://www.w3.org/2000/svg">
<path d="M14.9999 6H11.4284L8.14398 0.251875C8.10018 0.175346 8.03695 0.111747 7.96067 0.0675164C7.88439 0.023286 7.79778 -5.52896e-06 7.7096 9.84476e-10L5.66273 9.84476e-10C5.33054 9.84476e-10 5.09085 0.317812 5.1821 0.637187L6.71429 6H3.49992L2.14992 4.2C2.05554 4.07406 1.9071 4 1.74992 4H0.50023C0.174917 4 -0.0638329 4.30562 0.0152296 4.62125L0.999917 8L0.0152296 11.3787C-0.0638329 11.6944 0.174917 12 0.50023 12H1.74992C1.90742 12 2.05554 11.9259 2.14992 11.8L3.49992 10H6.71429L5.1821 15.3625C5.09085 15.6819 5.33054 16 5.66273 16H7.7096C7.88898 16 8.0546 15.9038 8.14367 15.7481L11.4284 10H14.9999C16.1046 10 17.9999 9.10469 17.9999 8C17.9999 6.89531 16.1046 6 14.9999 6Z" fill="#4B9EFF"/>
</svg>
