<svg width="20" height="20" viewBox="0 0 20 20" fill="none" xmlns="http://www.w3.org/2000/svg">
<path fill-rule="evenodd" clip-rule="evenodd" d="M5 0C2.23858 0 0 2.23858 0 5V15C0 17.7614 2.23858 20 5 20H15C17.7614 20 20 17.7614 20 15V5C20 2.23858 17.7614 0 15 0H5ZM9.2929 5.29289C9.6834 4.90237 10.3166 4.90237 10.7071 5.29289L14.7071 9.2929C14.8946 9.4804 15 9.7348 15 10C15 10.2652 14.8946 10.5196 14.7071 10.7071L10.7071 14.7071C10.3166 15.0976 9.6834 15.0976 9.2929 14.7071C8.9024 14.3166 8.9024 13.6834 9.2929 13.2929L11.5858 11H6C5.44772 11 5 10.5523 5 10C5 9.4477 5.44772 9 6 9H11.5858L9.2929 6.70711C8.9024 6.31658 8.9024 5.68342 9.2929 5.29289Z" fill="#EC3343"/>
</svg>
