<svg width="24" height="24" viewBox="0 0 24 24" fill="none" xmlns="http://www.w3.org/2000/svg">
<path d="M13.54 6C13.854 6.00185 14.1641 6.07 14.45 6.2C14.7592 6.33628 15.0226 6.55867 15.2088 6.84062C15.395 7.12256 15.4961 7.45215 15.5 7.79L15.5 16.21C15.4961 16.5479 15.395 16.8774 15.2088 17.1594C15.0226 17.4413 14.7592 17.6637 14.45 17.8C14.0943 17.968 13.6985 18.0328 13.3077 17.9868C12.917 17.9408 12.547 17.786 12.24 17.54L7.14 13.33C6.94 13.1708 6.77849 12.9685 6.66748 12.7382C6.55647 12.508 6.49882 12.2556 6.49882 12C6.49882 11.7444 6.55647 11.492 6.66748 11.2618C6.77849 11.0315 6.94 10.8292 7.14 10.67L12.24 6.46C12.6076 6.16187 13.0667 5.99943 13.54 6Z" fill="white"/>
</svg>
