<svg width="23" height="15" viewBox="0 0 23 15" fill="none" xmlns="http://www.w3.org/2000/svg">
<path d="M17.0994 14.2724C18.2799 14.2724 19.2369 13.3154 19.2369 12.1349C19.2369 10.9544 18.2799 9.99738 17.0994 9.99738C15.9189 9.99738 14.9619 10.9544 14.9619 12.1349C14.9619 13.3154 15.9189 14.2724 17.0994 14.2724Z" fill="#EC3343"/>
<path d="M20.0925 5.72225H17.8125C16.9575 1.87475 13.2525 -0.690247 9.405 0.164753C6.555 0.734753 4.275 2.87225 3.705 5.72225H2.7075C1.2825 5.72225 0 7.00475 0 8.42975V10.2823C0 11.2798 0.855 12.1348 1.8525 12.1348H2.28C2.28 10.2823 3.8475 8.71476 5.7 8.71476C7.5525 8.71476 9.12 10.2823 9.12 12.1348H13.68C13.68 10.2823 15.2475 8.71476 17.1 8.71476C18.9525 8.71476 20.52 10.2823 20.52 12.1348H20.9475C21.945 12.1348 22.8 11.2798 22.8 10.2823V8.57226C22.8 7.00476 21.5175 5.72225 20.0925 5.72225ZM5.985 5.72225C6.6975 3.01475 9.5475 1.58975 12.1125 2.30225C13.68 2.72975 14.9625 4.01225 15.5325 5.72225H5.985ZM5.7 9.99726C4.56 9.99726 3.5625 10.9948 3.5625 12.1348C3.5625 13.2748 4.56 14.2723 5.7 14.2723C6.84 14.2723 7.8375 13.2748 7.8375 12.1348C7.8375 10.9948 6.84 9.99726 5.7 9.99726Z" fill="#EC3343"/>
</svg>
