<svg width="70" height="100" viewBox="0 0 61 83" fill="none" xmlns="http://www.w3.org/2000/svg">
<path d="M50.5454 54.667C56.9487 48.9526 61 40.5534 61 31.183C61 13.9629 47.3412 0 30.4962 0C28.8618 0 27.2582 0.135746 25.6902 0.391574C11.1287 2.74624 0 15.6336 0 31.183C0 35.972 1.05593 40.5129 2.94434 44.5657C3.96516 46.7559 5.22793 48.8032 6.69436 50.6736C8.20356 52.5962 9.93237 54.3348 11.8361 55.8463C11.8521 55.858 11.8674 55.8704 11.8789 55.8783C12.442 56.3221 13.0204 56.7495 13.6147 57.1535C26.4091 66.9951 30.447 83 30.447 83C30.447 83 34.5718 66.9951 47.3668 57.1535C47.3795 57.1437 47.3929 57.1339 47.4057 57.1241C47.986 56.7286 48.5517 56.3129 49.1026 55.8783C49.1147 55.8704 49.1301 55.858 49.1454 55.8463C49.1703 55.8267 49.1933 55.8045 49.2182 55.785C49.6663 55.428 50.1049 55.0586 50.5326 54.6774C50.5365 54.6742 50.5409 54.6703 50.5448 54.667H50.5454Z" fill="#EC3343"/>
<path d="M38.8494 40.9061C40.4959 40.9061 41.8306 39.5713 41.8306 37.9248C41.8306 36.2783 40.4959 34.9436 38.8494 34.9436C37.2029 34.9436 35.8682 36.2783 35.8682 37.9248C35.8682 39.5713 37.2029 40.9061 38.8494 40.9061Z" fill="white"/>
<path d="M43.0236 28.981H39.8436C38.6511 23.6148 33.4836 20.0373 28.1174 21.2298C24.1424 22.0248 20.9625 25.006 20.1675 28.981H18.7762C16.7887 28.981 15 30.7697 15 32.7572V35.3409C15 36.7322 16.1925 37.9247 17.5837 37.9247H18.18C18.18 35.3409 20.3662 33.1547 22.95 33.1547C25.5337 33.1547 27.7199 35.3409 27.7199 37.9247H34.0799C34.0799 35.3409 36.2661 33.1547 38.8499 33.1547C41.4336 33.1547 43.6198 35.3409 43.6198 37.9247H44.2161C45.6073 37.9247 46.7998 36.7322 46.7998 35.3409V32.956C46.7998 30.7697 45.0111 28.981 43.0236 28.981ZM23.3474 28.981C24.3412 25.2048 28.3162 23.2173 31.8936 24.211C34.0799 24.8073 35.8686 26.596 36.6636 28.981H23.3474ZM22.95 34.9435C21.36 34.9435 19.9687 36.3347 19.9687 37.9247C19.9687 39.5147 21.36 40.9059 22.95 40.9059C24.5399 40.9059 25.9312 39.5147 25.9312 37.9247C25.9312 36.3347 24.5399 34.9435 22.95 34.9435Z" fill="white"/>
</svg>
