<svg width="19" height="19" viewBox="0 0 19 19" fill="none" xmlns="http://www.w3.org/2000/svg">
<path d="M18.2875 7.59999H14.25V2.61249C14.25 2.21884 13.9312 1.89999 13.5375 1.89999H9.2625C8.86884 1.89999 8.55 2.21884 8.55 2.61249V4.74999H6.65V2.37499C6.65 2.11256 6.43744 1.89999 6.175 1.89999H5.7C5.43756 1.89999 5.225 2.11256 5.225 2.37499V4.74999H3.325V2.37499C3.325 2.11256 3.11244 1.89999 2.85 1.89999H2.375C2.11256 1.89999 1.9 2.11256 1.9 2.37499V4.74999H0.7125C0.318844 4.74999 0 5.06884 0 5.46249V16.15C0 16.6746 0.425422 17.1 0.95 17.1H18.05C18.5746 17.1 19 16.6746 19 16.15V8.31249C19 7.91884 18.6809 7.59999 18.2875 7.59999ZM3.8 13.8937C3.8 14.0906 3.64058 14.25 3.44375 14.25H2.25625C2.05942 14.25 1.9 14.0906 1.9 13.8937V12.7062C1.9 12.5094 2.05942 12.35 2.25625 12.35H3.44375C3.64058 12.35 3.8 12.5094 3.8 12.7062V13.8937ZM3.8 11.0437C3.8 11.2406 3.64058 11.4 3.44375 11.4H2.25625C2.05942 11.4 1.9 11.2406 1.9 11.0437V9.85624C1.9 9.65942 2.05942 9.49999 2.25625 9.49999H3.44375C3.64058 9.49999 3.8 9.65942 3.8 9.85624V11.0437ZM3.8 8.19374C3.8 8.39057 3.64058 8.54999 3.44375 8.54999H2.25625C2.05942 8.54999 1.9 8.39057 1.9 8.19374V7.00624C1.9 6.80942 2.05942 6.64999 2.25625 6.64999H3.44375C3.64058 6.64999 3.8 6.80942 3.8 7.00624V8.19374ZM7.6 13.8937C7.6 14.0906 7.44058 14.25 7.24375 14.25H6.05625C5.85942 14.25 5.7 14.0906 5.7 13.8937V12.7062C5.7 12.5094 5.85942 12.35 6.05625 12.35H7.24375C7.44058 12.35 7.6 12.5094 7.6 12.7062V13.8937ZM7.6 11.0437C7.6 11.2406 7.44058 11.4 7.24375 11.4H6.05625C5.85942 11.4 5.7 11.2406 5.7 11.0437V9.85624C5.7 9.65942 5.85942 9.49999 6.05625 9.49999H7.24375C7.44058 9.49999 7.6 9.65942 7.6 9.85624V11.0437ZM7.6 8.19374C7.6 8.39057 7.44058 8.54999 7.24375 8.54999H6.05625C5.85942 8.54999 5.7 8.39057 5.7 8.19374V7.00624C5.7 6.80942 5.85942 6.64999 6.05625 6.64999H7.24375C7.44058 6.64999 7.6 6.80942 7.6 7.00624V8.19374ZM12.35 11.0437C12.35 11.2406 12.1906 11.4 11.9937 11.4H10.8062C10.6094 11.4 10.45 11.2406 10.45 11.0437V9.85624C10.45 9.65942 10.6094 9.49999 10.8062 9.49999H11.9937C12.1906 9.49999 12.35 9.65942 12.35 9.85624V11.0437ZM12.35 8.19374C12.35 8.39057 12.1906 8.54999 11.9937 8.54999H10.8062C10.6094 8.54999 10.45 8.39057 10.45 8.19374V7.00624C10.45 6.80942 10.6094 6.64999 10.8062 6.64999H11.9937C12.1906 6.64999 12.35 6.80942 12.35 7.00624V8.19374ZM12.35 5.34374C12.35 5.54057 12.1906 5.69999 11.9937 5.69999H10.8062C10.6094 5.69999 10.45 5.54057 10.45 5.34374V4.15624C10.45 3.95942 10.6094 3.79999 10.8062 3.79999H11.9937C12.1906 3.79999 12.35 3.95942 12.35 4.15624V5.34374ZM17.1 13.8937C17.1 14.0906 16.9406 14.25 16.7437 14.25H15.5562C15.3594 14.25 15.2 14.0906 15.2 13.8937V12.7062C15.2 12.5094 15.3594 12.35 15.5562 12.35H16.7437C16.9406 12.35 17.1 12.5094 17.1 12.7062V13.8937ZM17.1 11.0437C17.1 11.2406 16.9406 11.4 16.7437 11.4H15.5562C15.3594 11.4 15.2 11.2406 15.2 11.0437V9.85624C15.2 9.65942 15.3594 9.49999 15.5562 9.49999H16.7437C16.9406 9.49999 17.1 9.65942 17.1 9.85624V11.0437Z" fill="currentColor"/>
</svg>
