<svg width="21" height="21" viewBox="0 0 21 21" fill="none" xmlns="http://www.w3.org/2000/svg">
<g clip-path="url(#clip0_227_3683)">
<path d="M4.92188 9.84375H9.1875C9.77812 9.84375 10.1719 10.1391 10.1719 10.7297V21H3.60938V11.1562C3.60938 10.4344 4.2 9.84375 4.92188 9.84375Z" fill="#FBBF67"/>
<path d="M9.12187 11.4844H9.25313C9.38438 11.4844 9.51562 11.6156 9.51562 11.8125V21H8.85938V11.8125C8.85938 11.6156 8.99062 11.4844 9.12187 11.4844Z" fill="#D3976E"/>
<path d="M7.48125 11.4844H7.6125C7.74375 11.4844 7.875 11.6156 7.875 11.8125V21H7.21875V11.8125C7.21875 11.6156 7.35 11.4844 7.48125 11.4844Z" fill="#D3976E"/>
<path d="M16.7344 11.1562H19.6875C20.4094 11.1562 21 11.7469 21 12.4688V21H16.7344V11.1562Z" fill="#6ADBC6"/>
<path d="M17.8828 13.7812C17.8828 13.9453 18.0141 14.1094 18.2109 14.1094H19.1953C19.3922 14.1094 19.5234 13.9453 19.5234 13.7812V13.125C19.5234 12.9281 19.3922 12.7969 19.1953 12.7969H18.2109C18.0141 12.7969 17.8828 12.9281 17.8828 13.125V13.7812Z" fill="white"/>
<path d="M17.8828 16.4062C17.8828 16.5703 18.0141 16.7344 18.2109 16.7344H19.1953C19.3922 16.7344 19.5234 16.5703 19.5234 16.4062V15.75C19.5234 15.5531 19.3922 15.4219 19.1953 15.4219H18.2109C18.0141 15.4219 17.8828 15.5531 17.8828 15.75V16.4062Z" fill="white"/>
<path d="M17.8828 19.0312C17.8828 19.1953 18.0141 19.3594 18.2109 19.3594H19.1953C19.3922 19.3594 19.5234 19.1953 19.5234 19.0312V18.375C19.5234 18.1781 19.3922 18.0469 19.1953 18.0469H18.2109C18.0141 18.0469 17.8828 18.1781 17.8828 18.375V19.0312Z" fill="white"/>
<path d="M16.0781 3.60938C16.7344 3.60938 17.325 3.9375 17.6859 4.42969C17.8828 4.33125 18.1125 4.26562 18.375 4.26562C19.1625 4.26562 19.8188 4.82344 19.9828 5.57812H20.0156C20.5734 5.57812 21 6.00469 21 6.5625C21 7.12031 20.5734 7.54688 20.0156 7.54688H16.0781C14.9953 7.54688 14.1094 6.66094 14.1094 5.57812C14.1094 4.49531 14.9953 3.60938 16.0781 3.60938Z" fill="#D6EEF0"/>
<path d="M9.1875 3.28125C9.05625 3.28125 8.95781 3.31406 8.82656 3.34687C8.69531 2.55937 8.03906 1.96875 7.21875 1.96875C6.5625 1.96875 6.00469 2.3625 5.74219 2.92031C5.5125 2.72344 5.21719 2.625 4.92188 2.625C4.2 2.625 3.60938 3.21562 3.60938 3.9375C3.60938 4.65937 4.2 5.25 4.92188 5.25H9.1875C9.74531 5.25 10.1719 4.82344 10.1719 4.26562C10.1719 3.70781 9.74531 3.28125 9.1875 3.28125Z" fill="#D6EEF0"/>
<path d="M10.6312 5.87344L12.9938 3.47813C13.2563 3.21563 13.6828 3.21563 13.9125 3.47813L16.275 5.87344C16.5375 6.13594 16.7344 6.62812 16.7344 7.02187V21H10.1719V6.98906C10.1719 6.62812 10.3688 6.10312 10.6312 5.87344Z" fill="#D3976E"/>
<path d="M11.1562 11.1562C11.1562 11.3203 11.3203 11.4844 11.4844 11.4844H15.4219C15.5859 11.4844 15.75 11.3203 15.75 11.1562V10.5C15.75 10.3031 15.5859 10.1719 15.4219 10.1719H11.4844C11.3203 10.1719 11.1562 10.3031 11.1562 10.5V11.1562Z" fill="#FFDD7D"/>
<path d="M11.1562 13.7812C11.1562 13.9453 11.3203 14.1094 11.4844 14.1094H15.4219C15.5859 14.1094 15.75 13.9453 15.75 13.7812V13.125C15.75 12.9281 15.5859 12.7969 15.4219 12.7969H11.4844C11.3203 12.7969 11.1562 12.9281 11.1562 13.125V13.7812Z" fill="#FFDD7D"/>
<path d="M11.1562 16.4062C11.1562 16.5703 11.3203 16.7344 11.4844 16.7344H15.4219C15.5859 16.7344 15.75 16.5703 15.75 16.4062V15.75C15.75 15.5531 15.5859 15.4219 15.4219 15.4219H11.4844C11.3203 15.4219 11.1562 15.5531 11.1562 15.75V16.4062Z" fill="#FFDD7D"/>
<path d="M11.1562 19.0312C11.1562 19.1953 11.3203 19.3594 11.4844 19.3594H15.4219C15.5859 19.3594 15.75 19.1953 15.75 19.0312V18.375C15.75 18.1781 15.5859 18.0469 15.4219 18.0469H11.4844C11.3203 18.0469 11.1562 18.1781 11.1562 18.375V19.0312Z" fill="#FFDD7D"/>
<path d="M11.1562 8.53125C11.1562 8.69531 11.3203 8.85938 11.4844 8.85938H15.4219C15.5859 8.85938 15.75 8.69531 15.75 8.53125V7.875C15.75 7.67812 15.5859 7.54688 15.4219 7.54688H11.4844C11.3203 7.54688 11.1562 7.67812 11.1562 7.875V8.53125Z" fill="#FFDD7D"/>
<path d="M1.3125 6.23438V4.59375C1.3125 4.23281 1.60781 3.9375 1.96875 3.9375H2.95312V0.328125C2.95312 0.13125 3.08437 0 3.28125 0C3.47813 0 3.60938 0.13125 3.60938 0.328125V3.9375H4.59375C4.95469 3.9375 5.25 4.23281 5.25 4.59375V6.23438C5.97188 6.23438 6.5625 6.825 6.5625 7.54688V21H0V7.54688C0 6.825 0.590625 6.23438 1.3125 6.23438Z" fill="#6ADBC6"/>
<path d="M3.77344 8.20312C3.77344 8.36719 3.9375 8.53125 4.10156 8.53125H5.08594C5.25 8.53125 5.41406 8.36719 5.41406 8.20312V7.54688C5.41406 7.35 5.25 7.21875 5.08594 7.21875H4.10156C3.9375 7.21875 3.77344 7.35 3.77344 7.54688V8.20312Z" fill="white"/>
<path d="M1.14844 8.20312C1.14844 8.36719 1.3125 8.53125 1.47656 8.53125H2.46094C2.625 8.53125 2.78906 8.36719 2.78906 8.20312V7.54688C2.78906 7.35 2.625 7.21875 2.46094 7.21875H1.47656C1.3125 7.21875 1.14844 7.35 1.14844 7.54688V8.20312Z" fill="white"/>
<path d="M3.77344 10.5C3.77344 10.6641 3.9375 10.8281 4.10156 10.8281H5.08594C5.25 10.8281 5.41406 10.6641 5.41406 10.5V9.84375C5.41406 9.64687 5.25 9.51562 5.08594 9.51562H4.10156C3.9375 9.51562 3.77344 9.64687 3.77344 9.84375V10.5Z" fill="white"/>
<path d="M1.14844 10.5C1.14844 10.6641 1.3125 10.8281 1.47656 10.8281H2.46094C2.625 10.8281 2.78906 10.6641 2.78906 10.5V9.84375C2.78906 9.64687 2.625 9.51562 2.46094 9.51562H1.47656C1.3125 9.51562 1.14844 9.64687 1.14844 9.84375V10.5Z" fill="white"/>
<path d="M3.77344 12.7969C3.77344 12.9609 3.9375 13.125 4.10156 13.125H5.08594C5.25 13.125 5.41406 12.9609 5.41406 12.7969V12.1406C5.41406 11.9437 5.25 11.8125 5.08594 11.8125H4.10156C3.9375 11.8125 3.77344 11.9437 3.77344 12.1406V12.7969Z" fill="white"/>
<path d="M1.14844 12.7969C1.14844 12.9609 1.3125 13.125 1.47656 13.125H2.46094C2.625 13.125 2.78906 12.9609 2.78906 12.7969V12.1406C2.78906 11.9437 2.625 11.8125 2.46094 11.8125H1.47656C1.3125 11.8125 1.14844 11.9437 1.14844 12.1406V12.7969Z" fill="white"/>
<path d="M3.77344 15.0938C3.77344 15.2578 3.9375 15.4219 4.10156 15.4219H5.08594C5.25 15.4219 5.41406 15.2578 5.41406 15.0938V14.4375C5.41406 14.2406 5.25 14.1094 5.08594 14.1094H4.10156C3.9375 14.1094 3.77344 14.2406 3.77344 14.4375V15.0938Z" fill="white"/>
<path d="M1.14844 15.0938C1.14844 15.2578 1.3125 15.4219 1.47656 15.4219H2.46094C2.625 15.4219 2.78906 15.2578 2.78906 15.0938V14.4375C2.78906 14.2406 2.625 14.1094 2.46094 14.1094H1.47656C1.3125 14.1094 1.14844 14.2406 1.14844 14.4375V15.0938Z" fill="white"/>
<path d="M3.77344 17.3906C3.77344 17.5547 3.9375 17.7188 4.10156 17.7188H5.08594C5.25 17.7188 5.41406 17.5547 5.41406 17.3906V16.7344C5.41406 16.5375 5.25 16.4062 5.08594 16.4062H4.10156C3.9375 16.4062 3.77344 16.5375 3.77344 16.7344V17.3906Z" fill="white"/>
<path d="M1.14844 17.3906C1.14844 17.5547 1.3125 17.7188 1.47656 17.7188H2.46094C2.625 17.7188 2.78906 17.5547 2.78906 17.3906V16.7344C2.78906 16.5375 2.625 16.4062 2.46094 16.4062H1.47656C1.3125 16.4062 1.14844 16.5375 1.14844 16.7344V17.3906Z" fill="white"/>
<path d="M3.77344 19.6875C3.77344 19.8516 3.9375 20.0156 4.10156 20.0156H5.08594C5.25 20.0156 5.41406 19.8516 5.41406 19.6875V19.0312C5.41406 18.8344 5.25 18.7031 5.08594 18.7031H4.10156C3.9375 18.7031 3.77344 18.8344 3.77344 19.0312V19.6875Z" fill="white"/>
<path d="M1.14844 19.6875C1.14844 19.8516 1.3125 20.0156 1.47656 20.0156H2.46094C2.625 20.0156 2.78906 19.8516 2.78906 19.6875V19.0312C2.78906 18.8344 2.625 18.7031 2.46094 18.7031H1.47656C1.3125 18.7031 1.14844 18.8344 1.14844 19.0312V19.6875Z" fill="white"/>
</g>
<defs>
<clipPath id="clip0_227_3683">
<rect width="21" height="21" fill="white" transform="matrix(-1 0 0 1 21 0)"/>
</clipPath>
</defs>
</svg>
