<svg width="18" height="29" viewBox="0 0 18 29" fill="none" xmlns="http://www.w3.org/2000/svg">
<path d="M3 2.39982C3 1.08015 4.08015 0 5.40027 0H12.6003C13.9204 0 14.9997 1.08015 14.9997 2.39982V26.4005C14.9997 27.7197 13.9203 28.7999 12.6003 28.7999H5.40027C4.08015 28.7999 3 27.7197 3 26.4005V2.39982Z" fill="#424953"/>
<path opacity="0.2" d="M3 5.55107V22.0481C4.68306 23.2751 6.75729 23.9993 9.00022 23.9993C11.2432 23.9993 13.3156 23.2752 14.9997 22.0481V5.55107C13.3156 4.32461 11.2432 3.59991 9.00028 3.59991C6.75729 3.59991 4.68306 4.32461 3 5.55107Z" fill="black"/>
<path opacity="0.2" d="M12.6002 0H5.40027C4.08015 0 3 1.08015 3 2.39982V3.59996C3 2.27983 4.08015 1.20008 5.40027 1.20008H12.6003C13.9204 1.20008 14.9997 2.27978 14.9997 3.59996V2.39982C14.9997 1.08015 13.9203 0 12.6002 0Z" fill="white"/>
<path opacity="0.2" d="M5.40027 28.7998H12.6003C13.9204 28.7998 14.9997 27.7197 14.9997 26.4005V25.1998C14.9997 26.52 13.9203 27.5993 12.6003 27.5993H5.40027C4.08015 27.5993 3 26.5199 3 25.1998V26.4005C3 27.7197 4.08009 28.7998 5.40027 28.7998Z" fill="white"/>
<path d="M9.00016 22.1993C6.75548 22.1993 4.64609 21.3257 3.06058 19.7402C1.47326 18.1528 0.599609 16.0435 0.599609 13.8001C0.599609 11.5562 1.47326 9.44683 3.06058 7.86042C4.64609 6.27355 6.75548 5.3999 9.00016 5.3999C11.2432 5.3999 13.3525 6.27355 14.9398 7.86042C16.5253 9.44683 17.3998 11.5562 17.3998 13.8001C17.3998 16.0435 16.5253 18.1528 14.9398 19.7402C13.3524 21.3257 11.243 22.1993 9.00016 22.1993Z" fill="#FECD57"/>
<path d="M9.00017 5.40002C8.66794 5.40002 8.3999 5.66852 8.3999 5.9999C8.3999 6.33128 8.668 6.60022 9.00017 6.60022C9.33065 6.60022 9.59964 6.33128 9.59964 5.9999C9.59959 5.66852 9.33065 5.40002 9.00017 5.40002Z" fill="#F5BA45"/>
<path d="M9.00017 21.0005C8.66794 21.0005 8.3999 21.2686 8.3999 21.5999C8.3999 21.9312 8.668 22.1993 9.00017 22.1993C9.33065 22.1993 9.59964 21.9312 9.59964 21.5999C9.59964 21.2686 9.33065 21.0005 9.00017 21.0005Z" fill="#F5BA45"/>
<path d="M4.79997 6.52533C4.51258 6.69099 4.41414 7.05792 4.58025 7.34492C4.74636 7.63186 5.11284 7.7303 5.40029 7.56464C5.68684 7.39897 5.78528 7.03199 5.62001 6.74505C5.4539 6.4581 5.08731 6.35966 4.79997 6.52533Z" fill="#F5BA45"/>
<path d="M12.5998 20.0355C12.3124 20.2008 12.2139 20.5681 12.3801 20.8546C12.5453 21.142 12.9126 21.2404 13.1991 21.0743C13.4857 20.909 13.5841 20.5417 13.4189 20.2552C13.2536 19.9678 12.8862 19.8703 12.5998 20.0355Z" fill="#F5BA45"/>
<path d="M2.54426 9.38048C2.25687 9.21482 1.89033 9.31281 1.72422 9.59975C1.55895 9.88675 1.6574 10.2537 1.94394 10.4193C2.23133 10.5855 2.59787 10.487 2.76398 10.2001C2.93015 9.91307 2.83171 9.54614 2.54426 9.38048Z" fill="#F5BA45"/>
<path d="M16.054 17.1808C15.7675 17.0148 15.4002 17.1131 15.235 17.4005C15.0697 17.6871 15.1681 18.0545 15.4547 18.2197C15.7411 18.3849 16.1085 18.2865 16.2738 18C16.44 17.7134 16.3416 17.346 16.054 17.1808Z" fill="#F5BA45"/>
<path d="M1.19993 13.1998C0.86855 13.1998 0.599609 13.4688 0.599609 13.8001C0.599609 14.1314 0.86855 14.4 1.19993 14.4C1.53125 14.4 1.80019 14.1315 1.80019 13.8001C1.80019 13.4687 1.53125 13.1998 1.19993 13.1998Z" fill="#F5BA45"/>
<path d="M16.7996 13.1998C16.4682 13.1998 16.2002 13.4688 16.2002 13.8001C16.2002 14.1314 16.4683 14.4 16.7996 14.4C17.1309 14.4 17.3999 14.1315 17.3999 13.8001C17.3999 13.4687 17.131 13.1998 16.7996 13.1998Z" fill="#F5BA45"/>
<path d="M1.94394 17.1809C1.6574 17.3461 1.55895 17.7135 1.72422 18C1.89033 18.2865 2.25682 18.3849 2.54426 18.2197C2.83165 18.0544 2.93009 17.6871 2.76398 17.4005C2.59776 17.1131 2.23128 17.0147 1.94394 17.1809Z" fill="#F5BA45"/>
<path d="M16.054 10.4193C16.3414 10.2537 16.4399 9.88669 16.2738 9.59975C16.1085 9.31281 15.7411 9.21482 15.4547 9.38048C15.1681 9.54614 15.0697 9.91307 15.235 10.2001C15.4003 10.487 15.7676 10.5855 16.054 10.4193Z" fill="#F5BA45"/>
<path d="M5.40029 20.0355C5.1129 19.8703 4.74636 19.9678 4.58025 20.2552C4.41414 20.5417 4.51258 20.9091 4.79997 21.0743C5.08736 21.2405 5.4539 21.142 5.62001 20.8547C5.78522 20.5681 5.68678 20.2007 5.40029 20.0355Z" fill="#F5BA45"/>
<path d="M12.5997 7.56464C12.8862 7.7303 13.2536 7.63186 13.4188 7.34492C13.5841 7.05792 13.4856 6.69099 13.1991 6.52533C12.9126 6.35966 12.5453 6.4581 12.38 6.74505C12.214 7.03204 12.3124 7.39897 12.5997 7.56464Z" fill="#F5BA45"/>
<path d="M12.8181 16.7694L9.59964 13.5513V8.9999C9.59964 8.66858 9.3307 8.40009 9.00017 8.40009C8.66794 8.40009 8.3999 8.66858 8.3999 8.9999V13.8C8.3999 13.9657 8.46757 14.1156 8.57479 14.2241L11.9691 17.6185C12.2038 17.8523 12.5844 17.8523 12.8181 17.6185C13.0519 17.3837 13.0519 17.0041 12.8181 16.7694Z" fill="#424953"/>
<path d="M8.99997 4.80011C4.02888 4.80011 0 8.82944 0 13.8001C0 18.7698 4.02893 22.8005 8.99997 22.8005C13.9702 22.8005 18 18.7698 18 13.8001C17.9999 8.82949 13.9701 4.80011 8.99997 4.80011ZM14.5151 19.3148C13.7988 20.032 12.9638 20.5945 12.0357 20.9873C11.0742 21.3942 10.053 21.5999 8.99997 21.5999C7.94615 21.5999 6.92405 21.3943 5.96428 20.9873C5.03522 20.5945 4.20118 20.032 3.48402 19.3148C2.76681 18.5985 2.20429 17.7644 1.81233 16.8363C1.40624 15.8748 1.19974 14.8535 1.19974 13.8001C1.19974 12.7463 1.40624 11.725 1.81233 10.7643C2.20429 9.83533 2.76681 9.00123 3.48402 8.28452C4.20118 7.56776 5.03528 7.00524 5.96428 6.61238C6.92405 6.20585 7.94615 5.99974 8.99997 5.99974C10.053 5.99974 11.0742 6.20585 12.0357 6.61238C12.9638 7.00524 13.7988 7.56776 14.5151 8.28452C15.2314 9.00123 15.7938 9.83533 16.1876 10.7643C16.5936 11.725 16.7993 12.7463 16.7993 13.8001C16.7993 14.8535 16.5936 15.8748 16.1876 16.8363C15.7937 17.7644 15.2314 18.5985 14.5151 19.3148Z" fill="#F5BA45"/>
</svg>
