<svg width="22" height="22" viewBox="0 0 22 22" fill="none" xmlns="http://www.w3.org/2000/svg">
<path d="M5.23196 18.0644C5.25314 18.0431 5.27321 18.0209 5.29225 17.9977C5.30097 17.9871 5.30853 17.9759 5.3167 17.965C5.32645 17.952 5.33655 17.9392 5.34561 17.9256C5.35434 17.9126 5.3619 17.899 5.36989 17.8856C5.37724 17.8733 5.38493 17.8613 5.39172 17.8487C5.39902 17.835 5.40521 17.821 5.41179 17.8071C5.41802 17.7939 5.42459 17.7809 5.43022 17.7674C5.4358 17.7539 5.44036 17.74 5.44526 17.7263C5.45046 17.7118 5.456 17.6975 5.46051 17.6827C5.46468 17.669 5.46773 17.655 5.47121 17.6411C5.47504 17.626 5.47925 17.6111 5.4823 17.5957C5.48548 17.5796 5.48737 17.5634 5.48969 17.5472C5.49158 17.5338 5.49416 17.5206 5.49549 17.5071C5.50142 17.4469 5.50142 17.3863 5.49549 17.3262C5.49416 17.3126 5.49162 17.2995 5.48969 17.2861C5.48737 17.2699 5.48548 17.2536 5.48225 17.2376C5.4792 17.2222 5.47499 17.2073 5.47117 17.1922C5.46769 17.1783 5.46464 17.1643 5.46047 17.1506C5.456 17.1358 5.45046 17.1215 5.44526 17.1071C5.44032 17.0933 5.4358 17.0795 5.43022 17.0659C5.42459 17.0524 5.41802 17.0394 5.41179 17.0262C5.40521 17.0123 5.39907 16.9983 5.39176 16.9846C5.38497 16.972 5.37724 16.9599 5.36989 16.9476C5.3619 16.9343 5.35434 16.9208 5.34561 16.9077C5.3365 16.8942 5.32641 16.8813 5.31661 16.8683C5.30845 16.8574 5.30093 16.8463 5.29225 16.8357C5.25392 16.789 5.21108 16.7461 5.16433 16.7078C5.15376 16.6991 5.14263 16.6916 5.1318 16.6834C5.1187 16.6736 5.10589 16.6635 5.09231 16.6544C5.07929 16.6457 5.0658 16.6381 5.05244 16.6302C5.04011 16.6228 5.02807 16.6151 5.0154 16.6082C5.00178 16.601 4.98781 16.5948 4.97393 16.5883C4.9607 16.582 4.94768 16.5754 4.9341 16.5698C4.92065 16.5642 4.9069 16.5597 4.89324 16.5548C4.87867 16.5496 4.86432 16.544 4.84945 16.5395C4.83579 16.5354 4.82191 16.5324 4.80807 16.5289C4.79291 16.5251 4.77791 16.5208 4.76248 16.5177C4.7465 16.5146 4.73039 16.5127 4.71427 16.5104C4.70078 16.5085 4.6875 16.5059 4.67384 16.5046C4.64376 16.5016 4.6136 16.5 4.58339 16.5H0.916652C0.410395 16.5 0 16.9104 0 17.4167C0 17.9229 0.410395 18.3333 0.916652 18.3333H2.37029L0.268469 20.4352C0.268297 20.4353 0.268211 20.4355 0.268039 20.4356C0.246855 20.4569 0.226789 20.4791 0.207754 20.5023C0.199031 20.5129 0.191469 20.5241 0.183305 20.535C0.173551 20.548 0.163453 20.5608 0.154387 20.5744C0.145664 20.5874 0.138102 20.601 0.130109 20.6144C0.122762 20.6267 0.11507 20.6387 0.108281 20.6513C0.100977 20.665 0.0947891 20.679 0.0882148 20.6929C0.0819844 20.7061 0.0754102 20.7191 0.0697813 20.7326C0.0641953 20.7461 0.0596406 20.76 0.0547422 20.7737C0.049543 20.7882 0.044 20.8025 0.0395312 20.8172C0.0353633 20.831 0.0323125 20.845 0.028832 20.8589C0.0250078 20.874 0.0207969 20.8889 0.0177461 20.9042C0.0145664 20.9203 0.0126328 20.9366 0.0103125 20.9528C0.00842187 20.9661 0.00584375 20.9793 0.00451172 20.9929C-0.00141797 21.053 -0.00141797 21.1136 0.00451172 21.1738C0.00584375 21.1873 0.00837891 21.2005 0.0103125 21.2139C0.0126328 21.2301 0.0145234 21.2464 0.0177461 21.2624C0.0207969 21.2778 0.0250078 21.2927 0.028832 21.3078C0.0323125 21.3217 0.0353633 21.3357 0.0395312 21.3494C0.044 21.3642 0.049543 21.3785 0.0547422 21.3929C0.0596836 21.4067 0.0641953 21.4205 0.0697813 21.4341C0.0753672 21.4476 0.0819844 21.4605 0.0882148 21.4737C0.0947891 21.4876 0.100977 21.5017 0.108281 21.5154C0.11507 21.528 0.122762 21.54 0.130109 21.5523C0.138102 21.5656 0.145664 21.5792 0.154387 21.5923C0.163453 21.6058 0.173551 21.6186 0.183305 21.6316C0.191469 21.6425 0.199031 21.6537 0.207754 21.6643C0.226789 21.6875 0.246855 21.7098 0.268039 21.731C0.268211 21.7312 0.268297 21.7314 0.268469 21.7315C0.268641 21.7317 0.268813 21.7318 0.268984 21.732C0.290168 21.7531 0.312469 21.7732 0.335629 21.7922C0.346242 21.8009 0.357414 21.8085 0.368285 21.8166C0.381348 21.8264 0.394109 21.8365 0.407687 21.8456C0.420707 21.8543 0.434242 21.8619 0.447648 21.8698C0.459938 21.8772 0.471926 21.8849 0.484602 21.8917C0.498266 21.899 0.512316 21.9052 0.526238 21.9117C0.53943 21.918 0.552406 21.9245 0.565898 21.9301C0.579434 21.9357 0.593227 21.9402 0.606977 21.9452C0.621457 21.9504 0.635766 21.9559 0.65059 21.9604C0.66434 21.9646 0.678305 21.9676 0.692184 21.9711C0.707266 21.9749 0.722176 21.9792 0.737559 21.9822C0.753672 21.9854 0.769914 21.9873 0.786113 21.9896C0.799477 21.9915 0.812668 21.9941 0.826203 21.9954C0.856281 21.9984 0.886445 22 0.916609 22H0.916652H4.5833C5.08956 22 5.49996 21.5896 5.49996 21.0833C5.49996 20.577 5.08956 20.1667 4.5833 20.1667H3.12967L5.23149 18.0648C5.23166 18.0647 5.23179 18.0645 5.23196 18.0644Z" fill="white"/>
<path d="M20.5464 19.25L21.7315 18.0648C22.0895 17.7069 22.0895 17.1264 21.7315 16.7685C21.3736 16.4105 20.7931 16.4105 20.4352 16.7685L19.25 17.9536L18.0648 16.7685C17.7069 16.4105 17.1264 16.4105 16.7685 16.7685C16.4105 17.1264 16.4105 17.7069 16.7685 18.0648L17.9536 19.25L16.7685 20.4352C16.4105 20.7931 16.4105 21.3736 16.7685 21.7315C17.1264 22.0895 17.7069 22.0895 18.0648 21.7315L19.25 20.5464L20.4352 21.7315C20.7931 22.0895 21.3736 22.0895 21.7315 21.7315C22.0895 21.3736 22.0895 20.7931 21.7315 20.4352L20.5464 19.25Z" fill="white"/>
<path d="M10.0833 3.12971V4.58334C10.0833 5.0896 10.4937 5.5 11 5.5C11.5063 5.5 11.9167 5.0896 11.9167 4.58334V3.12971L13.4815 1.56487C13.8395 1.2069 13.8395 0.62648 13.4815 0.268507C13.1235 -0.0894655 12.5431 -0.0894655 12.1851 0.268507L11 1.45363L9.81484 0.268464C9.45686 -0.0895084 8.87644 -0.0895084 8.51847 0.268464C8.1605 0.626437 8.1605 1.20686 8.51847 1.56483L10.0833 3.12971Z" fill="white"/>
<path d="M16.156 14.8675L11.9167 11.4761V7.33335C11.9167 6.82709 11.5063 6.41669 11 6.41669C10.4938 6.41669 10.0834 6.82709 10.0834 7.33335V11.4761L5.84409 14.8675C5.44878 15.1838 5.38467 15.7606 5.70092 16.1559C6.01717 16.5513 6.59403 16.6154 6.98934 16.2991L11 13.0906L15.0107 16.2991C15.406 16.6154 15.9829 16.5513 16.2991 16.1559C16.6154 15.7606 16.5513 15.1838 16.156 14.8675Z" fill="white"/>
</svg>
