<svg width="21" height="12" viewBox="0 0 21 12" fill="none" xmlns="http://www.w3.org/2000/svg">
<path d="M3.31083 7.72237L2.68519 9.10417L1.17572 8.95509L0 6.91868L1.30944 6.16266L3.31083 7.72237Z" fill="#027ACD"/>
<path d="M2.53418 11.308L10.0654 10.097L18.772 5.07031C20.0714 4.32008 20.5167 2.65841 19.7664 1.35895L11.1757 5.29818L2.53418 11.308Z" fill="#3EAFF5"/>
<path d="M19.7665 1.35891C19.0162 0.0594564 17.3546 -0.385819 16.0551 0.364455L1.17578 8.95507L2.53423 11.308L7.70643 8.32182L9.18579 6.44712L12.2693 5.68742L19.7665 1.35891Z" fill="#7ACDFF"/>
<path d="M14.0927 5.16764L15.2996 4.47086L14.6367 3.32286L13.4299 4.01964L14.0927 5.16764Z" fill="#FFC222"/>
<path d="M16.1728 3.967L17.3796 3.27022L16.7168 2.12222L15.51 2.819L16.1728 3.967Z" fill="#FFC222"/>
<path d="M5.37378 5.63245L7.70643 8.32182L12.2693 5.68743L8.51959 3.81625L6.44305 3.99454L5.37378 5.63245Z" fill="#027ACD"/>
<path d="M4.77001 1.945L3.04126 2.94309L5.37387 5.63242L8.51968 3.81622L4.77001 1.945Z" fill="#3EAFF5"/>
</svg>
