<svg width="110" height="110" viewBox="0 0 110 110" fill="none" xmlns="http://www.w3.org/2000/svg">
<g clip-path="url(#clip0_268_3031)">
<path d="M64.0295 48.2416L37.6102 21.0562C37.0511 20.4813 36.1815 20.341 35.4703 20.7109L25.8069 25.7376C24.9303 26.1935 24.5775 27.3086 25.0341 28.186L41.7897 60.3982C42.2454 61.2743 43.3605 61.6275 44.2381 61.1709L63.5654 51.1175C64.6259 50.5658 64.8637 49.1004 64.0295 48.2416Z" fill="#6AC8B7"/>
<path d="M48.0961 59.1287C47.2182 59.5852 46.1034 59.2322 45.6477 58.3559L28.892 26.1437C28.4866 25.3645 28.7204 24.3992 29.3913 23.8732L25.8069 25.7376C24.9303 26.1935 24.5775 27.3086 25.0341 28.186L41.7897 60.3982C42.2454 61.2743 43.3603 61.6275 44.2381 61.171L48.0961 59.1287Z" fill="#2DB59F"/>
<path d="M109.409 39.5504C106.947 34.818 102.79 31.3277 97.7028 29.7219C92.6157 28.1162 87.2079 28.5875 82.4759 31.0492C82.4532 31.061 82.431 31.0731 82.4089 31.086L17.4743 68.4161L9.56549 60.2095C9.00732 59.6301 8.13398 59.4874 7.42049 59.8587L0.977966 63.2098C0.0885134 63.6726 -0.257385 64.7687 0.205174 65.6582L8.74135 82.0684C10.9794 86.3708 16.1831 88.1532 20.5833 86.1283L48.5448 73.3831L63.5729 102.274C64.0292 103.151 65.1428 103.504 66.0213 103.047L75.6847 98.0201C76.3959 97.6501 76.7804 96.8574 76.6302 96.0697L70.3972 63.3415L106.917 46.7631C108.225 46.1695 109.245 45.0499 109.714 43.6921C110.183 42.3345 110.071 40.8248 109.409 39.5504Z" fill="#74DBC9"/>
<path d="M67.204 100.575L52.1759 71.6848L24.2144 84.4299C19.8146 86.455 14.6104 84.6727 12.3724 80.37L3.83625 63.9598C3.37347 63.0702 3.71959 61.9742 4.60904 61.5115L0.977966 63.21C0.0885134 63.6728 -0.257385 64.7689 0.205173 65.6584L8.74134 82.0686C10.9794 86.371 16.1831 88.1534 20.5833 86.1285L48.5448 73.3833L63.5729 102.274C64.0292 103.151 65.1428 103.504 66.0213 103.047L68.9081 101.545C68.221 101.575 67.5372 101.216 67.204 100.575Z" fill="#6AC8B7"/>
<path d="M105.833 34.6584C103.627 32.4461 100.88 30.7611 97.8893 29.7849C97.4261 29.6338 96.921 29.6751 96.4883 29.9002L86.601 35.0432C85.7116 35.5059 85.3657 36.6021 85.8282 37.4915L89.1794 43.934C89.6357 44.8115 90.7492 45.1638 91.6277 44.7068L105.385 37.5508C105.898 37.2842 106.253 36.7892 106.341 36.2177C106.43 35.6464 106.241 35.0677 105.833 34.6584Z" fill="#D7D8D9"/>
<path d="M80.5118 46.1663C79.65 46.1663 78.8882 45.537 78.7266 44.6903C78.578 43.9117 78.9694 43.1056 79.6726 42.7397L82.894 41.0639C83.784 40.601 84.8795 40.9473 85.3423 41.8367C85.8051 42.7264 85.459 43.8223 84.5695 44.2851L81.3482 45.9609C81.0802 46.1003 80.7939 46.1663 80.5118 46.1663Z" fill="#2DB59F"/>
<path d="M70.8468 51.193C70.191 51.193 69.5579 50.837 69.2346 50.2148C68.7718 49.3251 69.1179 48.2292 70.0074 47.7664L73.2287 46.0907C74.1186 45.6274 75.2145 45.974 75.6771 46.8634C76.1399 47.7531 75.7937 48.849 74.9043 49.3118L71.6829 50.9876C71.4152 51.127 71.1288 51.193 70.8468 51.193Z" fill="#2DB59F"/>
<path d="M61.1846 56.2197C60.5289 56.2197 59.8958 55.8635 59.5725 55.2415C59.1097 54.352 59.4558 53.2559 60.3455 52.7931L63.5668 51.1178C64.4565 50.6548 65.5524 51.0011 66.0152 51.8908C66.478 52.7802 66.1318 53.8764 65.2422 54.3391L62.0208 56.0145C61.7531 56.1537 61.4667 56.2197 61.1846 56.2197Z" fill="#2DB59F"/>
<path d="M51.5206 61.2461C50.8649 61.2461 50.2317 60.8899 49.9084 60.268C49.4456 59.3785 49.7917 58.2824 50.6814 57.8196L53.9028 56.1442C54.7922 55.6813 55.8883 56.0274 56.3511 56.9173C56.8139 57.8067 56.4678 58.9028 55.5781 59.3656L52.3567 61.041C52.0888 61.1804 51.8024 61.2461 51.5206 61.2461Z" fill="#2DB59F"/>
<path d="M41.8575 66.2731C40.9957 66.2731 40.2339 65.6436 40.0723 64.7971C39.9237 64.0185 40.3151 63.2124 41.0183 62.8467L44.2397 61.1714C45.1293 60.7082 46.2252 61.0547 46.688 61.9444C47.1508 62.8339 46.8047 63.93 45.915 64.3928L42.6936 66.0681C42.4259 66.2069 42.1396 66.2731 41.8575 66.2731Z" fill="#2DB59F"/>
<path d="M32.1934 71.2998C31.3317 71.2998 30.5698 70.6705 30.4083 69.8238C30.2596 69.0452 30.651 68.2391 31.3542 67.8732L34.5756 66.1975C35.4655 65.7343 36.5614 66.0808 37.024 66.9703C37.4867 67.8599 37.1406 68.9558 36.2512 69.4186L33.0298 71.0944C32.7619 71.2338 32.4755 71.2998 32.1934 71.2998Z" fill="#2DB59F"/>
<path d="M22.5293 76.3265C21.6676 76.3265 20.9058 75.6972 20.7442 74.8505C20.5955 74.0719 20.987 73.2658 21.6902 72.8999L24.9115 71.2242C25.8016 70.7612 26.8971 71.1075 27.3599 71.997C27.8227 72.8866 27.4765 73.9825 26.5871 74.4453L23.3657 76.1211C23.0978 76.2605 22.8114 76.3265 22.5293 76.3265Z" fill="#2DB59F"/>
<path d="M44.4789 98.5714H43.8657C42.8323 96.4013 40.6119 94.9406 38.1245 94.9406C37.528 94.9406 36.9447 95.022 36.3859 95.1812C35.1652 92.8463 32.7334 91.3097 29.9548 91.3097C27.219 91.3097 24.7801 92.8417 23.5454 95.1565C22.9728 95.0138 22.3818 94.9406 21.7854 94.9406C17.7811 94.9406 14.5234 98.1982 14.5234 102.202C14.5234 106.207 17.7811 109.464 21.7854 109.464H44.4785C47.4818 109.464 49.925 107.021 49.925 104.018C49.925 101.015 47.482 98.5714 44.4789 98.5714Z" fill="#EBEBEC"/>
<path d="M44.9326 107.649H22.2393C18.2351 107.649 14.9774 104.391 14.9774 100.387C14.9774 100.104 14.9952 99.8252 15.027 99.5507C14.7035 100.373 14.5234 101.267 14.5234 102.202C14.5234 106.207 17.7811 109.464 21.7854 109.464H44.4789C47.3498 109.464 49.7075 107.231 49.9097 104.411C49.0606 106.317 47.1498 107.649 44.9326 107.649Z" fill="#D7D8D9"/>
<path d="M88.0511 7.79773H87.438C86.4046 5.62759 84.1842 4.16687 81.6967 4.16687C81.1003 4.16687 80.517 4.2483 79.9582 4.4075C78.7375 2.07257 76.3056 0.536011 73.5271 0.536011C70.7912 0.536011 68.3523 2.06806 67.1176 4.38279C66.5451 4.24013 65.954 4.16687 65.3576 4.16687C61.3534 4.16687 58.0957 7.42455 58.0957 11.4288C58.0957 15.4331 61.3534 18.6907 65.3576 18.6907H88.0511C91.0544 18.6907 93.4977 16.2475 93.4977 13.2442C93.4977 10.2409 91.0544 7.79773 88.0511 7.79773Z" fill="#EBEBEC"/>
<path d="M88.5051 16.8751H65.8116C61.8073 16.8751 58.5497 13.6175 58.5497 9.61321C58.5497 9.33026 58.5675 9.05161 58.5993 8.77704C58.2757 9.59925 58.0957 10.4932 58.0957 11.4289C58.0957 15.4331 61.3534 18.6908 65.3576 18.6908H88.0511C90.9221 18.6908 93.2798 16.4575 93.482 13.6372C92.6331 15.5425 90.7223 16.8751 88.5051 16.8751Z" fill="#D7D8D9"/>
</g>
<defs>
<clipPath id="clip0_268_3031">
<rect width="110" height="110" fill="white"/>
</clipPath>
</defs>
</svg>
