<svg width="110" height="110" viewBox="0 0 110 110" fill="none" xmlns="http://www.w3.org/2000/svg">
<g clip-path="url(#clip0_268_3076)">
<path d="M84.029 110C82.998 110 82.1646 109.167 82.1646 108.136C82.1646 107.105 82.998 106.271 84.029 106.271H87.6273C88.6584 106.271 89.557 107.105 89.557 108.134C89.557 109.165 88.7889 109.998 87.7578 109.998V108.134L87.7038 109.998L84.029 110ZM76.5714 110H72.8426C71.8116 110 70.9782 109.167 70.9782 108.136C70.9782 107.105 71.8116 106.271 72.8426 106.271H76.5714C77.6024 106.271 78.4358 107.105 78.4358 108.136C78.4358 109.167 77.6024 110 76.5714 110ZM65.385 110H61.6562C60.6251 110 59.7917 109.167 59.7917 108.136C59.7917 107.105 60.6251 106.271 61.6562 106.271H65.385C66.416 106.271 67.2494 107.105 67.2494 108.136C67.2494 109.167 66.416 110 65.385 110ZM54.1985 110H50.4697C49.4387 110 48.6053 109.167 48.6053 108.136C48.6053 107.105 49.4387 106.271 50.4697 106.271H54.1985C55.2295 106.271 56.0629 107.105 56.0629 108.136C56.0629 109.167 55.2295 110 54.1985 110ZM43.0121 110H39.2833C38.2523 110 37.4189 109.167 37.4189 108.136C37.4189 107.105 38.2523 106.271 39.2833 106.271H43.0121C44.0431 106.271 44.8765 107.105 44.8765 108.136C44.8765 109.167 44.0431 110 43.0121 110ZM31.8256 110H28.0968C27.0658 110 26.2324 109.167 26.2324 108.136C26.2324 107.105 27.0658 106.271 28.0968 106.271H31.8256C32.8567 106.271 33.69 107.105 33.69 108.136C33.69 109.167 32.8567 110 31.8256 110ZM94.2217 106.797C93.819 106.797 93.4126 106.666 93.0714 106.398C92.2604 105.76 92.1224 104.588 92.7582 103.78C93.3641 103.01 93.7799 102.136 93.9943 101.185C94.2199 100.18 95.2173 99.55 96.2223 99.7756C97.2272 100.001 97.8573 100.999 97.6318 102.004C97.2999 103.48 96.6287 104.892 95.689 106.083C95.3217 106.553 94.7755 106.797 94.2217 106.797ZM94.2236 96.4252C93.6699 96.4252 93.1236 96.181 92.7563 95.713C92.1597 94.9542 91.3878 94.3259 90.5246 93.8971C89.6036 93.4385 89.227 92.3198 89.6856 91.3969C90.1443 90.4759 91.2592 90.0974 92.1858 90.5579C93.5412 91.231 94.7512 92.2173 95.689 93.4068C96.3248 94.2159 96.1868 95.3886 95.3758 96.0244C95.0346 96.2929 94.6263 96.4252 94.2236 96.4252ZM84.0309 93.2203H80.3021C79.2711 93.2203 78.4377 92.3869 78.4377 91.3559C78.4377 90.3249 79.2711 89.4915 80.3021 89.4915H84.0309C85.0619 89.4915 85.8953 90.3249 85.8953 91.3559C85.8953 92.3869 85.0619 93.2203 84.0309 93.2203ZM72.8445 93.2203H69.1156C68.0846 93.2203 67.2512 92.3869 67.2512 91.3559C67.2512 90.3249 68.0846 89.4915 69.1156 89.4915H72.8445C73.8755 89.4915 74.7089 90.3249 74.7089 91.3559C74.7089 92.3869 73.8755 93.2203 72.8445 93.2203ZM61.7662 92.4634C61.507 92.4634 61.2441 92.4093 60.9924 92.2937C59.6202 91.6673 58.3785 90.7202 57.3997 89.5586C56.7378 88.77 56.8385 87.5935 57.6272 86.9317C58.4158 86.2698 59.5904 86.3705 60.2541 87.1591C60.8768 87.8993 61.6692 88.5034 62.5436 88.9042C63.4795 89.3312 63.8916 90.4368 63.4628 91.3746C63.1495 92.0588 62.4746 92.4634 61.7662 92.4634ZM57.0138 83.2458C56.8963 83.2458 56.7789 83.2346 56.6614 83.2122C55.649 83.0183 54.989 82.0395 55.1811 81.029C55.4701 79.5207 56.0816 78.1279 56.9951 76.8863C57.6067 76.0566 58.7719 75.8813 59.6016 76.4891C60.4312 77.1007 60.6084 78.2678 59.9987 79.0956C59.4151 79.8861 59.0273 80.7717 58.8446 81.73C58.6712 82.6249 57.8901 83.2458 57.0138 83.2458ZM64.8517 76.45C63.858 76.45 63.0302 75.6651 62.9911 74.662C62.9501 73.6329 63.748 72.7641 64.7772 72.723C64.9356 72.7156 65.0941 72.7118 65.2545 72.7118H68.5824C69.6134 72.7118 70.4468 73.5452 70.4468 74.5763C70.4468 75.6073 69.6134 76.4407 68.5824 76.4407L64.93 76.4481C64.9039 76.45 64.8778 76.45 64.8517 76.45ZM98.8138 76.4407H98.4129C97.3819 76.4407 96.5485 75.6073 96.5485 74.5763C96.5485 73.5452 97.3819 72.7118 98.4129 72.7118H98.8138C99.6882 72.7118 100.535 72.5422 101.334 72.2066C102.276 71.8057 103.376 72.2532 103.775 73.2041C104.174 74.153 103.728 75.2456 102.778 75.6446C101.519 76.1722 100.186 76.4407 98.8138 76.4407ZM90.9553 76.4407H87.2265C86.1955 76.4407 85.3621 75.6073 85.3621 74.5763C85.3621 73.5452 86.1955 72.7118 87.2265 72.7118H90.9553C91.9863 72.7118 92.8197 73.5452 92.8197 74.5763C92.8197 75.6073 91.9863 76.4407 90.9553 76.4407ZM79.7689 76.4407H76.0401C75.009 76.4407 74.1756 75.6073 74.1756 74.5763C74.1756 73.5452 75.009 72.7118 76.0401 72.7118H79.7689C80.7999 72.7118 81.6333 73.5452 81.6333 74.5763C81.6333 75.6073 80.7999 76.4407 79.7689 76.4407ZM106.864 70.4186C106.691 70.4186 106.514 70.3944 106.34 70.3441C105.352 70.0551 104.785 69.0185 105.074 68.0303C105.25 67.4337 105.339 66.8147 105.339 66.1883C105.343 65.8303 105.313 65.491 105.261 65.1591C105.097 64.143 105.789 63.1847 106.806 63.0225C107.819 62.8547 108.779 63.5502 108.943 64.5681C109.031 65.1144 109.072 65.6644 109.068 66.2013C109.068 67.169 108.93 68.1403 108.654 69.0781C108.415 69.891 107.672 70.4186 106.864 70.4186ZM103.009 60.7871C102.692 60.7871 102.369 60.7069 102.075 60.5354C101.23 60.0451 100.309 59.758 99.3339 59.6815C98.3067 59.6013 97.5404 58.7046 97.6206 57.6773C97.7007 56.6481 98.6012 55.8893 99.6248 55.9639C101.159 56.0832 102.615 56.5381 103.945 57.31C104.836 57.8264 105.14 58.9693 104.621 59.8586C104.278 60.4534 103.652 60.7871 103.009 60.7871ZM92.0217 59.661H88.2929C87.2619 59.661 86.4285 58.8276 86.4285 57.7966C86.4285 56.7656 87.2619 55.9322 88.2929 55.9322H92.0217C93.0528 55.9322 93.8861 56.7656 93.8861 57.7966C93.8861 58.8276 93.0528 59.661 92.0217 59.661ZM80.8353 59.661H77.1065C76.0755 59.661 75.2421 58.8276 75.2421 57.7966C75.2421 56.7656 76.0755 55.9322 77.1065 55.9322H80.8353C81.8663 55.9322 82.6997 56.7656 82.6997 57.7966C82.6997 58.8276 81.8663 59.661 80.8353 59.661ZM69.6489 59.661H65.92C64.889 59.661 64.0556 58.8276 64.0556 57.7966C64.0556 56.7656 64.889 55.9322 65.92 55.9322H69.6489C70.6799 55.9322 71.5133 56.7656 71.5133 57.7966C71.5133 58.8276 70.6799 59.661 69.6489 59.661ZM58.4624 59.661H57.7968C56.5328 59.6591 55.3041 59.4317 54.137 58.988C53.175 58.6207 52.6939 57.543 53.0594 56.581C53.4285 55.6171 54.5117 55.1398 55.4663 55.5034C56.2084 55.7868 56.9933 55.9303 57.8006 55.9322H58.4624C59.4934 55.9322 60.3268 56.7656 60.3268 57.7966C60.3268 58.8276 59.4934 59.661 58.4624 59.661ZM49.8246 53.8907C49.0416 53.8907 48.3107 53.3929 48.0534 52.6079C47.7141 51.5788 47.5445 50.5012 47.5445 49.4049C47.5463 48.9612 47.5743 48.5305 47.6265 48.111C47.7533 47.093 48.6556 46.3752 49.709 46.4946C50.7307 46.6213 51.456 47.5554 51.3255 48.5771C51.29 48.8512 51.2751 49.1327 51.2733 49.4142C51.2733 50.1041 51.3833 50.7883 51.5977 51.4427C51.9184 52.4196 51.387 53.4749 50.4082 53.7974C50.2143 53.8627 50.0167 53.8907 49.8246 53.8907ZM53.3745 44.1417C52.7517 44.1417 52.1439 43.8303 51.7897 43.2635C51.2453 42.3891 51.5119 41.2388 52.3845 40.6944C53.6895 39.8796 55.1289 39.3837 56.6614 39.2141C57.6924 39.1078 58.606 39.8405 58.7197 40.8641C58.8334 41.8876 58.0933 42.8086 57.0697 42.9224C56.0984 43.0305 55.1848 43.3456 54.3589 43.8602C54.0512 44.0503 53.7119 44.1417 53.3745 44.1417ZM79.2375 42.8813H75.5087C74.4777 42.8813 73.6443 42.048 73.6443 41.0169C73.6443 39.9859 74.4777 39.1525 75.5087 39.1525H79.2375C80.2685 39.1525 81.1019 39.9859 81.1019 41.0169C81.1019 42.048 80.2685 42.8813 79.2375 42.8813ZM68.0511 42.8813H64.3223C63.2912 42.8813 62.4578 42.048 62.4578 41.0169C62.4578 39.9859 63.2912 39.1525 64.3223 39.1525H68.0511C69.0821 39.1525 69.9155 39.9859 69.9155 41.0169C69.9155 42.048 69.0821 42.8813 68.0511 42.8813Z" fill="#EE4848"/>
<path d="M99.6892 4.97608C93.8033 -1.65934 84.2594 -1.65934 78.3734 4.97608C72.4875 11.6115 72.4875 22.3673 78.3734 29.0027L89.0304 41.0169L99.6873 29.0027C105.575 22.3691 105.575 11.6115 99.6892 4.97608ZM89.4909 24.2373C84.8578 24.2373 81.1011 20.4805 81.1011 15.8474C81.1011 11.2144 84.8578 7.4576 89.4909 7.4576C94.1239 7.4576 97.8807 11.2144 97.8807 15.8474C97.8807 20.4805 94.1239 24.2373 89.4909 24.2373Z" fill="#A93B84"/>
<path d="M35.9415 53.3966C27.932 44.3487 14.9464 44.3487 6.93876 53.3966C-1.07073 62.4446 -1.07073 77.1138 6.93876 86.1599L21.4401 102.542L35.9415 86.1599C43.951 77.1119 43.951 62.4427 35.9415 53.3966ZM21.4401 76.4407C16.2925 76.4407 12.1181 72.2663 12.1181 67.1187C12.1181 61.971 16.2925 57.7966 21.4401 57.7966C26.5877 57.7966 30.7621 61.971 30.7621 67.1187C30.7621 72.2663 26.5877 76.4407 21.4401 76.4407Z" fill="#EE4848"/>
</g>
<defs>
<clipPath id="clip0_268_3076">
<rect width="110" height="110" fill="white"/>
</clipPath>
</defs>
</svg>
