<svg width="110" height="110" viewBox="0 0 110 110" fill="none" xmlns="http://www.w3.org/2000/svg">
<path d="M93.0751 66.2379H84.6133C82.2769 66.2379 80.3828 68.1319 80.3828 70.4684V87.3915C80.3828 89.728 82.2769 91.6224 84.6133 91.6224H93.0751C95.4116 91.6224 97.306 89.728 97.306 87.3915V70.4684C97.306 68.1319 95.4116 66.2379 93.0751 66.2379Z" fill="url(#paint0_linear_268_3089)"/>
<path d="M25.3857 66.2382H16.9241C14.5876 66.2382 12.6934 68.1323 12.6934 70.4691V87.3919C12.6934 89.7287 14.5876 91.6228 16.9241 91.6228H25.3857C27.7223 91.6228 29.6164 89.7287 29.6164 87.3919V70.4691C29.6164 68.1323 27.7223 66.2382 25.3857 66.2382Z" fill="url(#paint1_linear_268_3089)"/>
<path fill-rule="evenodd" clip-rule="evenodd" d="M97.3089 49.3149H12.6934L24.6263 20.6758C25.9401 17.5227 29.021 15.4688 32.437 15.4688H77.5649C80.9811 15.4688 84.0618 17.5227 85.3759 20.6758L97.3089 49.3149ZM84.6166 40.8534H25.3857L32.437 23.9303H77.5649L84.6166 40.8534Z" fill="url(#paint2_linear_268_3089)"/>
<path d="M10.5769 36.6225H6.34614C2.84127 36.6225 0 39.4638 0 42.9686C0 46.4735 2.84127 49.3148 6.34614 49.3148H10.5769C14.0818 49.3148 16.9231 46.4735 16.9231 42.9686C16.9231 39.4638 14.0818 36.6225 10.5769 36.6225Z" fill="url(#paint3_linear_268_3089)"/>
<path d="M103.653 36.6229H99.4221C95.9173 36.6229 93.0762 39.4641 93.0762 42.969C93.0762 46.4739 95.9173 49.3152 99.4221 49.3152H103.653C107.158 49.3152 109.999 46.4739 109.999 42.969C109.999 39.4641 107.158 36.6229 103.653 36.6229Z" fill="url(#paint4_linear_268_3089)"/>
<path d="M84.6149 40.8535H25.384C16.0376 40.8535 8.46094 48.4302 8.46094 57.7765V66.2382C8.46094 75.5844 16.0376 83.161 25.384 83.161H84.6149C93.9611 83.161 101.538 75.5844 101.538 66.2382V57.7765C101.538 48.4302 93.9611 40.8535 84.6149 40.8535Z" fill="url(#paint5_linear_268_3089)"/>
<path d="M25.3854 70.4688C30.0585 70.4688 33.8469 66.6803 33.8469 62.007C33.8469 57.3341 30.0585 53.5456 25.3854 53.5456C20.7122 53.5456 16.9238 57.3341 16.9238 62.007C16.9238 66.6803 20.7122 70.4688 25.3854 70.4688Z" fill="white"/>
<path d="M84.6157 70.4688C89.289 70.4688 93.0775 66.6803 93.0775 62.007C93.0775 57.3341 89.289 53.5456 84.6157 53.5456C79.9428 53.5456 76.1543 57.3341 76.1543 62.007C76.1543 66.6803 79.9428 70.4688 84.6157 70.4688Z" fill="white"/>
<path d="M50.7684 57.7765C50.7684 55.4397 48.874 53.5456 46.5375 53.5456C44.201 53.5456 42.3066 55.4397 42.3066 57.7765V66.2379C42.3066 68.5743 44.201 70.4688 46.5375 70.4688C48.874 70.4688 50.7684 68.5743 50.7684 66.2379V57.7765Z" fill="black" fill-opacity="0.4"/>
<path d="M67.6919 57.7765C67.6919 55.4397 65.7978 53.5456 63.461 53.5456C61.1245 53.5456 59.2305 55.4397 59.2305 57.7765V66.2379C59.2305 68.5743 61.1245 70.4688 63.461 70.4688C65.7978 70.4688 67.6919 68.5743 67.6919 66.2379V57.7765Z" fill="black" fill-opacity="0.4"/>
<defs>
<linearGradient id="paint0_linear_268_3089" x1="88.8442" y1="66.2379" x2="88.8442" y2="91.6224" gradientUnits="userSpaceOnUse">
<stop stop-color="#3873E5"/>
<stop offset="1" stop-color="#2A5CDD"/>
</linearGradient>
<linearGradient id="paint1_linear_268_3089" x1="21.1549" y1="66.2382" x2="21.1549" y2="91.6228" gradientUnits="userSpaceOnUse">
<stop stop-color="#3873E5"/>
<stop offset="1" stop-color="#2A5CDD"/>
</linearGradient>
<linearGradient id="paint2_linear_268_3089" x1="55.0012" y1="15.4688" x2="55.0012" y2="49.3149" gradientUnits="userSpaceOnUse">
<stop stop-color="#57A6F5"/>
<stop offset="1" stop-color="#3C79E7"/>
</linearGradient>
<linearGradient id="paint3_linear_268_3089" x1="8.46154" y1="36.6225" x2="8.46154" y2="49.3148" gradientUnits="userSpaceOnUse">
<stop stop-color="#58A8F6"/>
<stop offset="1" stop-color="#3B78E7"/>
</linearGradient>
<linearGradient id="paint4_linear_268_3089" x1="101.538" y1="36.6229" x2="101.538" y2="49.3152" gradientUnits="userSpaceOnUse">
<stop stop-color="#58A8F6"/>
<stop offset="1" stop-color="#3B78E7"/>
</linearGradient>
<linearGradient id="paint5_linear_268_3089" x1="54.9994" y1="40.8535" x2="54.9994" y2="83.161" gradientUnits="userSpaceOnUse">
<stop stop-color="#58A8F6"/>
<stop offset="1" stop-color="#3B78E7"/>
</linearGradient>
</defs>
</svg>
