<svg width="20" height="19" viewBox="0 0 20 19" fill="none" xmlns="http://www.w3.org/2000/svg">
<path d="M18.4102 0H1.58985C0.714763 0 0 0.704935 0 1.58278V17.4172C0 18.2884 0.714763 19 1.58985 19H18.4102C19.2852 19 20 18.2884 20 17.4172V1.58278C20 0.704935 19.2852 0 18.4102 0ZM13.4469 5.63948C13.0327 5.40007 12.7054 5.20721 12.2912 5.20721C11.8771 5.20721 11.5431 5.30697 11.3694 5.47322C11.1957 5.63948 11.1022 5.96535 11.1022 6.44417V7.15576H13.2599L12.7923 9.13091H11.1022V15.6881H8.39011V9.13756H7.12759V7.16241H8.39679V6.41092C8.39679 5.61953 8.49031 5.14071 8.68403 4.74834C8.87108 4.35597 9.23848 3.9237 9.73948 3.67763C10.2472 3.43157 10.9953 3.31187 11.7702 3.31187C12.5451 3.31187 13.1864 3.57788 13.9412 3.79069L13.4469 5.65278V5.63948Z" fill="white"/>
</svg>
