<svg width="auto" height="auto" viewBox="0 0 450 410" fill="none" xmlns="http://www.w3.org/2000/svg">
<path d="M354.413 233.71C354.413 331.853 274.037 410 177.207 410C80.3843 410 0 331.853 0 233.71C0 135.568 78.5532 57.4209 177.207 57.4209C275.86 57.4209 354.413 135.568 354.413 233.71Z" fill="#2196F3"/>
<path d="M175.435 314.804C175.435 311.278 173.663 309.515 170.118 307.752C159.486 304.226 148.854 304.226 139.993 295.403C138.221 291.878 138.221 288.352 136.449 284.826C132.905 281.3 124.045 279.537 118.729 277.774H83.2872C77.971 276.012 74.4269 268.96 70.8827 263.671C70.8827 261.908 70.8827 258.374 67.3386 258.374C63.7945 256.62 60.2503 260.145 56.7062 258.374C54.9341 256.62 54.9341 254.848 54.9341 253.094C54.9341 247.797 58.4783 242.508 62.0224 238.982C67.3386 235.457 72.6548 240.745 77.971 240.745C79.7431 240.745 79.7431 240.745 81.5151 242.508C86.8313 244.271 88.6034 251.323 88.6034 256.62V260.145C88.6034 261.908 90.3755 261.908 92.1475 261.908C93.9196 253.094 93.9196 244.271 95.6917 235.465C95.6917 224.888 106.324 214.302 115.184 210.784C118.729 209.03 120.501 212.556 124.045 210.784C134.677 207.259 161.258 196.681 155.942 182.586C152.398 170.238 141.765 157.914 127.589 159.669C124.045 161.44 122.273 163.195 118.729 164.966C113.412 168.492 102.78 179.069 97.4637 179.069C88.6034 177.306 88.6034 164.966 90.3755 159.669C92.1475 152.617 108.096 129.708 118.729 133.234L125.817 140.285C129.361 142.048 134.677 142.048 139.993 142.048C141.765 142.048 143.537 142.048 145.31 140.285C147.082 138.522 147.082 138.522 147.082 136.76C147.082 131.471 141.765 126.174 138.221 122.648C134.677 119.122 129.361 115.596 124.045 113.842C106.324 108.545 77.971 115.596 63.7945 127.945C49.6179 140.285 38.9856 161.44 31.8973 179.069C28.3532 189.646 24.809 203.741 23.037 216.09C21.2649 224.904 19.4928 231.956 24.809 240.762C30.1252 251.339 40.7576 261.925 51.39 268.968C58.4783 274.257 72.6548 274.257 79.7431 283.072C85.0593 290.131 83.2872 298.938 83.2872 307.752C83.2872 318.329 90.3755 327.144 93.9196 335.95C95.6917 341.247 97.4637 348.299 99.2358 353.587C99.2358 355.35 101.008 365.928 101.008 367.69C111.64 372.979 120.501 378.276 132.905 381.802C134.677 381.802 141.765 371.216 141.765 369.453C147.082 364.165 150.626 357.113 155.942 353.587C159.486 351.824 163.03 350.062 166.574 346.527C170.118 343.002 171.891 335.95 173.663 330.661C175.435 327.144 177.207 320.092 175.435 314.804ZM178.979 152.617C180.751 152.617 182.523 150.854 186.067 149.091C191.383 145.566 196.708 140.277 202.016 136.751C207.34 133.225 212.656 127.937 216.201 124.411C221.517 120.885 225.061 113.834 226.833 108.536C228.605 105.011 233.93 97.9591 232.149 92.6704C230.377 89.1446 221.517 87.3817 217.973 85.6188C203.788 82.093 191.383 80.3385 177.207 80.3385C171.891 80.3385 164.802 82.093 163.03 87.3901C161.258 96.2046 168.346 94.4417 175.435 96.2046C175.435 96.2046 177.207 110.308 177.207 112.071C178.979 120.893 173.663 126.174 173.663 134.988C173.663 140.277 173.663 149.091 177.207 152.617H178.979ZM327.832 276.02C329.613 272.494 329.613 267.205 331.376 263.68C333.157 254.857 333.157 246.051 333.157 237.236C333.157 219.607 331.376 201.987 326.069 186.112C322.525 180.824 320.744 175.535 318.972 170.238C315.428 161.432 310.112 152.609 303.023 145.566C295.935 136.751 287.066 112.071 271.126 119.122C265.81 120.893 262.266 127.945 258.722 131.471L248.089 147.337C246.309 149.1 244.545 152.626 246.309 154.389C246.309 156.151 248.089 156.151 249.853 156.151C253.397 157.923 255.178 157.923 258.722 159.677C260.494 159.677 262.266 161.448 260.494 163.203C260.494 163.203 260.494 164.974 258.722 164.974C249.853 173.789 241.001 180.84 232.141 189.646C230.369 191.409 228.597 194.935 228.597 196.698C228.597 198.461 230.369 198.461 230.369 200.224C230.369 201.995 228.597 201.995 226.825 203.75C223.28 205.521 219.736 207.275 217.964 209.047C216.192 212.572 217.964 217.861 216.192 221.387C214.42 230.201 209.095 237.253 205.551 246.067C202.007 251.348 200.244 256.645 196.699 261.934C196.699 268.985 194.919 274.274 198.463 279.562C207.332 291.903 223.272 284.851 235.676 290.148C239.221 291.903 242.765 291.903 244.545 295.429C249.853 300.726 249.853 309.54 251.633 314.829C253.397 321.88 255.178 328.932 258.722 335.984C260.494 344.806 264.038 353.621 265.81 360.664C281.767 348.324 295.935 334.229 306.568 316.592C317.2 304.226 322.525 290.131 327.832 276.02Z" fill="#CDDC39"/>
<path d="M388.235 149.911C393.102 143.18 393.2 133.077 386.642 121.146L395.24 108.369C410.945 110.159 419.369 104.9 423.075 98.1378L432.968 83.4366C437.276 76.9499 437.372 67.6434 432.152 57.1357C421.598 35.8488 393.864 17.3086 370.212 15.7171C351.005 14.4247 345.679 25.0802 345.679 25.0802L335.689 39.9265C331.053 45.8735 329.402 55.545 336.923 69.2239C336.923 69.2239 327.61 83.0643 328.326 82.0004C314.752 80.4541 305.422 84.381 301.031 91.4292L291.34 105.831C286.295 112.303 285.841 121.974 291.42 133.224C301.974 154.511 329.708 173.052 353.36 174.643C365.958 175.484 374.757 171.301 378.733 164.032L388.235 149.911Z" fill="#EE4848"/>
<path d="M388.612 149.351L378.726 164.042C374.756 171.301 365.951 175.494 353.353 174.653C329.701 173.062 301.967 154.521 291.413 133.234C285.834 121.984 286.288 112.313 291.333 105.841L301.323 90.9943C297.034 97.452 296.861 106.665 302.139 117.295C312.693 138.582 340.427 157.122 364.079 158.714C375.908 159.505 384.313 155.802 388.612 149.351ZM432.967 83.4368C417.558 106.608 362.436 83.554 346.484 51.3749C341.212 40.7347 341.386 31.522 345.669 25.074L335.678 39.9203C331.043 45.8673 329.392 55.5388 336.913 69.2177L325.315 86.4529L325.373 86.4918C322.26 90.805 322.085 97.1318 325.706 104.431C332.739 118.625 351.231 130.982 367.002 132.046C375.181 132.591 380.956 129.951 383.707 125.34L383.794 125.399L395.255 108.366C410.96 110.156 419.385 104.897 423.09 98.1349L432.967 83.4368Z" fill="#BE1E2D"/>
<path d="M308.1 154.026L272.062 207.579L272.082 207.592C272.082 207.592 269.552 232.211 269.549 232.237L291.507 220.529L309.913 193.176C312.672 180.938 313.746 169.047 313.008 157.967C311.33 156.695 309.674 155.411 308.1 154.026Z" fill="#213D35"/>
<path d="M313.009 157.968C313.754 169.039 312.673 180.939 309.914 193.177L327.493 167.054C322.42 164.529 317.572 161.44 313.009 157.968Z" fill="#060C0A"/>
</svg>
