<svg width="16" height="16" viewBox="0 0 16 16" fill="none" xmlns="http://www.w3.org/2000/svg">
<g clip-path="url(#clip0_27_495)">
<path d="M15.4109 1.5108C15.0501 1.33042 14.618 1.36936 14.2951 1.61159C13.0493 2.54636 11.8439 2.16535 9.9805 1.46626C8.15428 0.781234 5.88163 -0.0712283 3.6386 1.61159C3.37043 1.8128 3.21258 2.12854 3.21258 2.46384V8.8092C3.21258 9.21279 3.44064 9.58176 3.80167 9.76224C4.16269 9.94273 4.59473 9.90363 4.91746 9.66145C6.16333 8.72668 7.36872 9.10769 9.23208 9.80678C10.2716 10.1967 11.4556 10.6409 12.6966 10.6409C13.6358 10.6409 14.6077 10.3864 15.574 9.66145C15.8422 9.46024 16 9.1445 16 8.8092V2.46384C16 2.06025 15.7719 1.69128 15.4109 1.5108Z" fill="currentColor"/>
<path d="M1.06544 0.416534C0.477 0.416534 0 0.893534 0 1.48198V14.518C0 15.1064 0.477 15.5834 1.06544 15.5834C1.65389 15.5834 2.13089 15.1064 2.13089 14.518V1.48198C2.13089 0.893534 1.65389 0.416534 1.06544 0.416534Z" fill="currentColor"/>
</g>
<defs>
<clipPath id="clip0_27_495">
<rect width="16" height="16" fill="white"/>
</clipPath>
</defs>
</svg>
