<svg width="19" height="19" viewBox="0 0 19 19" fill="none" xmlns="http://www.w3.org/2000/svg">
<path d="M3.96234 11.978C3.18919 12.1142 2.67333 12.8501 2.80929 13.6232C2.93018 14.3126 3.52938 14.7978 4.2064 14.7978C4.28825 14.7978 4.37078 14.7906 4.454 14.7759L5.27325 14.6321V17.5795C5.27325 18.3634 5.9095 19 6.69375 19C7.47837 19 8.11437 18.3634 8.11437 17.5795V14.1328L10.6485 13.6869V16.6917C10.6485 17.4763 11.2852 18.1122 12.0693 18.1122C12.8536 18.1122 13.4898 17.4763 13.4898 16.6917V13.1883L15.2271 12.8819C15.9997 12.7468 16.516 12.0105 16.3804 11.2379C16.2446 10.4642 15.5078 9.94891 14.7351 10.0847L13.4893 10.3036V7.35395L15.0378 7.08178C15.8104 6.94575 16.3265 6.20929 16.1904 5.43664C16.0554 4.66387 15.3176 4.14912 14.5454 4.28353L13.4892 4.46902V1.4205C13.4891 0.636002 12.853 0 12.0686 0C11.2846 0 10.6479 0.636002 10.6479 1.4205V4.96843L8.11375 5.41368V2.30801C8.11375 1.52376 7.47775 0.887387 6.69319 0.887387C5.90894 0.887387 5.27269 1.52376 5.27269 2.30801V5.91341L3.77294 6.17702C2.99968 6.31304 2.48394 7.04951 2.61978 7.82203C2.74054 8.51134 3.33974 8.99717 4.01701 8.99717C4.0988 8.99717 4.18114 8.9896 4.2643 8.97526L5.27269 8.7981V11.7479L3.96234 11.978ZM8.11375 8.29924L10.6479 7.85399V10.803L8.11375 11.2484V8.29924Z" fill="white"/>
</svg>
