<svg width="20" height="20" viewBox="0 0 20 20" fill="none" xmlns="http://www.w3.org/2000/svg">
<g clip-path="url(#clip0_268_3679)">
<path d="M11.6675 9.99997C11.6675 8.88831 13.4709 8.12831 14.4453 6.66664C15.5564 4.99997 15.5564 1.11108 15.5564 1.11108H4.44531C4.44531 1.11108 4.44531 4.99997 5.55642 6.66664C6.53087 8.12831 8.3342 8.88831 8.3342 9.99997C8.3342 11.1116 6.53087 11.8716 5.55642 13.3333C4.44531 15 4.44531 18.8889 4.44531 18.8889H15.5564C15.5564 18.8889 15.5564 15 14.4453 13.3333C13.4709 11.8716 11.6675 11.1116 11.6675 9.99997Z" fill="#FFE8B6"/>
<path d="M11.6652 13.3333C11.1102 13.3333 10.5225 12.7778 10.5225 12.2222C10.5547 11.2705 10.5547 10.6411 10.5547 9.99997C10.5547 8.21108 12.2402 7.46608 13.2769 6.11108H6.72135C7.75747 7.46608 9.44358 8.21108 9.44358 9.99997C9.44358 10.6416 9.44358 11.2716 9.4758 12.2222C9.4758 12.7778 8.88802 13.3333 8.33247 13.3333C7.22135 13.3333 6.33524 14.3244 6.11024 15C5.55469 16.6666 5.55469 18.8889 5.55469 18.8889H14.4436C14.4436 18.8889 14.4436 16.6666 13.888 15C13.663 14.3244 12.7764 13.3333 11.6652 13.3333Z" fill="#FFAC33"/>
<path d="M16.6673 18.8889C16.6673 19.1836 16.5503 19.4662 16.3419 19.6746C16.1335 19.8829 15.8509 20 15.5562 20H4.4451C4.15041 20 3.8678 19.8829 3.65942 19.6746C3.45105 19.4662 3.33398 19.1836 3.33398 18.8889C3.33398 18.5942 3.45105 18.3116 3.65942 18.1032C3.8678 17.8948 4.15041 17.7778 4.4451 17.7778H15.5562C15.8509 17.7778 16.1335 17.8948 16.3419 18.1032C16.5503 18.3116 16.6673 18.5942 16.6673 18.8889ZM16.6673 1.11111C16.6673 1.4058 16.5503 1.68841 16.3419 1.89679C16.1335 2.10516 15.8509 2.22222 15.5562 2.22222H4.4451C4.15041 2.22222 3.8678 2.10516 3.65942 1.89679C3.45105 1.68841 3.33398 1.4058 3.33398 1.11111C3.33398 0.816426 3.45105 0.533811 3.65942 0.325437C3.8678 0.117063 4.15041 0 4.4451 0L15.5562 0C15.8509 0 16.1335 0.117063 16.3419 0.325437C16.5503 0.533811 16.6673 0.816426 16.6673 1.11111Z" fill="#3B88C3"/>
</g>
<defs>
<clipPath id="clip0_268_3679">
<rect width="20" height="20" fill="white"/>
</clipPath>
</defs>
</svg>
