<svg width="20" height="22" viewBox="0 0 20 22" fill="none" xmlns="http://www.w3.org/2000/svg">
<path d="M18.9597 5.99707L13.3139 0.351294C12.8456 -0.117105 12.0789 -0.117105 11.6105 0.351336L0.713462 11.2483C0.245063 11.7168 -0.0699927 12.6378 0.0133796 13.295L0.537755 17.427C0.621085 18.0842 1.22706 18.6901 1.88423 18.7735L6.01606 19.2977C6.67319 19.381 7.59422 19.066 8.06262 18.5975L18.9597 7.70053C19.4281 7.23205 19.4281 6.46551 18.9597 5.99707ZM5.48568 15.411C5.04789 15.8488 4.33805 15.8488 3.90017 15.411C3.46234 14.9732 3.46234 14.2633 3.90017 13.8255C4.33805 13.3876 5.04798 13.3876 5.48577 13.8255C5.92364 14.2634 5.92364 14.9732 5.48568 15.411Z" fill="#0071CE"/>
<path d="M17.436 6.28185L10.7148 13.0031C10.3588 13.3592 9.77603 13.3592 9.41997 13.0031L6.30805 9.89129C5.95203 9.53523 5.95198 8.95251 6.30805 8.5964L13.0293 1.87508L17.436 6.28185Z" fill="white"/>
<path d="M6.03772 13.2732C5.29485 12.5303 4.09052 12.5303 3.34761 13.2732C2.60487 14.016 2.60478 15.2204 3.34765 15.9632C4.09048 16.7061 5.29485 16.7061 6.03772 15.9632C6.78046 15.2205 6.78055 14.0161 6.03772 13.2732ZM5.32356 15.2492C4.97519 15.5977 4.41023 15.5977 4.06169 15.2492C3.71323 14.9007 3.71323 14.3358 4.06169 13.9873C4.41018 13.6388 4.97515 13.6388 5.32356 13.9873C5.67206 14.3358 5.67206 14.9008 5.32356 15.2492Z" fill="#333E48"/>
<path d="M7.48832 21.6464C5.7572 21.6464 4.34888 20.238 4.34888 18.5069V15.4801C4.34888 15.2905 4.5026 15.1367 4.69222 15.1367C4.88183 15.1367 5.03556 15.2905 5.03556 15.4801V18.5069C5.03556 19.8594 6.13584 20.9597 7.48832 20.9597C8.1435 20.9597 8.75941 20.7045 9.22269 20.2413L18.4939 10.97C18.628 10.8359 18.8454 10.8359 18.9795 10.97C19.1136 11.1041 19.1136 11.3215 18.9795 11.4556L9.7083 20.7268C9.11535 21.3198 8.32695 21.6464 7.48832 21.6464Z" fill="#333E48"/>
<path d="M8.65911 9.65509C8.48336 9.65509 8.30765 9.58808 8.1735 9.45393C7.90538 9.18576 7.90537 8.75097 8.17354 8.48281L12.1644 4.49201C12.4326 4.22384 12.8673 4.22388 13.1356 4.49201C13.4037 4.76018 13.4037 5.19497 13.1356 5.46314L9.14467 9.45393C9.01061 9.588 8.83486 9.65509 8.65911 9.65509Z" fill="#333E48"/>
<path d="M10.9514 10.7298C10.7756 10.7298 10.5999 10.6628 10.4658 10.5286C10.1976 10.2605 10.1976 9.82569 10.4658 9.55752L13.2393 6.78395C13.5075 6.51578 13.9423 6.51578 14.2105 6.78395C14.4786 7.05212 14.4786 7.48691 14.2105 7.75507L11.4369 10.5286C11.3029 10.6627 11.1271 10.7298 10.9514 10.7298Z" fill="#333E48"/>
<path d="M13.9335 0.971145L13.0293 1.87534L17.436 6.28205L18.3402 5.37785L13.9335 0.971145Z" fill="#FF9E16"/>
</svg>
