<svg width="20" height="20" viewBox="0 0 20 20" fill="none" xmlns="http://www.w3.org/2000/svg">
<path d="M14.9841 0H5C2.25397 0 0 2.25397 0 5.01587V15C0 17.746 2.25397 20 5 20H14.9841C17.746 20 20 17.746 20 14.9841V5.01587C20 2.25397 17.746 0 14.9841 0ZM12.8571 16.2381C12.4127 16.2381 9.96825 16.1746 9.33333 16.1746C8.69841 16.1746 5.44444 15.1746 5.44444 11.619V9.71429C5.44444 9.12698 5.42857 8.53968 5.42857 7.95238V7.44445C5.42857 6.55556 5.34921 5.53968 5.63492 4.68254C5.85714 4.03175 6.38095 3.79365 7.03175 3.79365C8.60318 3.79365 8.69841 5.39683 8.71429 6.98413H13.254C13.9683 6.98413 14.5079 7.71429 14.5079 8.80952C14.5079 9.90476 13.3492 10.1587 12.746 10.1587H8.66667C8.65079 10.7937 8.61905 11.381 8.61905 11.7143C8.61905 12.4127 8.88889 13.1746 10.619 13.1746H13.0476C13.6508 13.1746 14.5556 13.6032 14.5556 14.873C14.5714 16.1429 13.3016 16.2381 12.8571 16.2381Z" fill="white"/>
</svg>
