<svg width="18" height="15" viewBox="0 0 18 15" fill="none" xmlns="http://www.w3.org/2000/svg">
<path d="M2.52 0C2.42424 0 2.33279 0.0377887 2.26547 0.105469L1.18547 1.18547C1.09619 1.27511 1.05959 1.40443 1.09055 1.52719L1.45055 2.96719C1.49087 3.12703 1.63476 3.24 1.8 3.24H3.6V3.96H3.09516C2.41544 3.96 1.79233 4.34482 1.48711 4.95211L1.49836 4.93102L0.265781 7.02562C0.0919843 7.30883 0 7.63438 0 7.96641V11.2711C0 11.8021 0.437891 12.24 0.968906 12.24H1.47305C1.64596 13.2582 2.53434 14.04 3.6 14.04C4.66566 14.04 5.55404 13.2582 5.72695 12.24H12.273C12.446 13.2582 13.3343 14.04 14.4 14.04C15.4657 14.04 16.354 13.2582 16.527 12.24H16.92C17.5124 12.24 18 11.7524 18 11.16V9.49992C18 8.62254 17.3612 7.86904 16.496 7.72453L13.4979 7.22461L10.992 4.59984C10.6501 4.1941 10.1462 3.96 9.61594 3.96H9.36V3.24H11.16C11.2964 3.24 11.4212 3.16306 11.482 3.04102L12.202 1.60102C12.2503 1.50454 12.2523 1.39169 12.2084 1.29305C12.1644 1.19441 12.079 1.1211 11.9749 1.09266L8.01492 0.0126562C7.98432 0.00437625 7.95204 0 7.92 0H2.52ZM4.32 3.24H8.64V3.96H4.32V3.24ZM3.09516 4.68H6.12V7.2H0.998438L2.12484 5.28609L2.13047 5.27484C2.31413 4.9094 2.68623 4.68 3.09516 4.68ZM6.84 4.68H9.61594C9.93453 4.68 10.2361 4.82021 10.4414 5.06391L10.4484 5.07234L12.4784 7.2H6.84V4.68ZM3.6 10.44C4.39934 10.44 5.04 11.0807 5.04 11.88C5.04 12.6793 4.39934 13.32 3.6 13.32C2.80067 13.32 2.16 12.6793 2.16 11.88C2.16 11.0807 2.80067 10.44 3.6 10.44ZM14.4 10.44C15.1993 10.44 15.84 11.0807 15.84 11.88C15.84 12.6793 15.1993 13.32 14.4 13.32C13.6007 13.32 12.96 12.6793 12.96 11.88C12.96 11.0807 13.6007 10.44 14.4 10.44Z" fill="#4B9EFF"/>
</svg>
