<svg width="20" height="20" viewBox="0 0 20 20" fill="none" xmlns="http://www.w3.org/2000/svg">
<path d="M13.3333 2.22222L6.66667 0L0 2.22222V20L6.66667 17.7778L13.3333 20L20 17.7778V0L13.3333 2.22222Z" fill="#FFECB3"/>
<path d="M6.66602 0V17.7778L13.3327 20V2.22222L6.66602 0Z" fill="#FFE082"/>
<path d="M13.3322 5C11.1839 5 9.44336 6.82944 9.44336 9.08389C9.44336 11.3383 13.3322 16.6667 13.3322 16.6667C13.3322 16.6667 17.2211 11.3378 17.2211 9.08389C17.2211 6.83 15.4806 5 13.3322 5Z" fill="#F44336"/>
<path d="M11.666 8.88883C11.666 9.33086 11.8416 9.75479 12.1542 10.0673C12.4667 10.3799 12.8907 10.5555 13.3327 10.5555C13.7747 10.5555 14.1986 10.3799 14.5112 10.0673C14.8238 9.75479 14.9993 9.33086 14.9993 8.88883C14.9993 8.44681 14.8238 8.02288 14.5112 7.71032C14.1986 7.39776 13.7747 7.22217 13.3327 7.22217C12.8907 7.22217 12.4667 7.39776 12.1542 7.71032C11.8416 8.02288 11.666 8.44681 11.666 8.88883Z" fill="#FFEBEE"/>
</svg>
