<svg width="auto" height="auto" viewBox="0 0 35 47" fill="none" xmlns="http://www.w3.org/2000/svg">
<g clip-path="url(#clip0_22_142)">
<path d="M29.0015 30.956C32.6755 27.7202 35 22.964 35 17.6578C35 7.90669 27.163 0 17.4978 0C16.5601 0 15.6399 0.076868 14.7403 0.221735C6.38535 1.5551 0 8.85276 0 17.6578C0 20.3697 0.605861 22.941 1.68938 25.236C2.27509 26.4762 2.99963 27.6355 3.84103 28.6947C4.70696 29.7834 5.6989 30.7679 6.79121 31.6238C6.80037 31.6305 6.80916 31.6375 6.81575 31.6419C7.13883 31.8932 7.4707 32.1353 7.81172 32.364C15.1527 37.937 17.4696 47 17.4696 47C17.4696 47 19.8363 37.937 27.1777 32.364C27.185 32.3585 27.1927 32.3529 27.2 32.3474C27.533 32.1234 27.8575 31.888 28.1736 31.6419C28.1806 31.6375 28.1894 31.6305 28.1982 31.6238C28.2125 31.6127 28.2256 31.6002 28.2399 31.5891C28.4971 31.3869 28.7487 31.1777 28.9941 30.9619C28.9963 30.9601 28.9989 30.9579 29.0011 30.956H29.0015Z" fill="currentColor"/>
<path d="M25.3524 17.656C25.3524 22.0308 21.8366 25.5778 17.4993 25.5778C14.3692 25.5778 11.6674 23.7304 10.4059 21.0563C9.91904 20.026 9.64725 18.8726 9.64725 17.6556C9.64725 13.705 12.5128 10.4296 16.2619 9.8317C16.6648 9.76666 17.078 9.73303 17.4993 9.73303C21.8363 9.73303 25.3524 13.2804 25.3524 17.656Z" fill="currentColor"/>
<path d="M28.4145 12.0497C27.5869 11.8532 26.2848 11.8697 24.4086 12.5943C24.4086 12.5943 12.9942 17.002 9.19043 18.4707C7.86049 18.9838 6.38847 15.4642 4.62938 16.1439C4.01274 16.3824 4.65867 17.4206 5.07611 18.5863C5.4291 19.5689 5.7279 20.5981 5.84654 20.9776C6.38261 22.6909 8.1959 22.4614 9.0381 22.3504C10.9466 22.0983 13.482 21.2717 17.3165 19.839C16.9093 21.7518 15.6204 27.8218 15.553 28.1443C15.4066 28.8509 16.5432 28.3904 17.3971 27.6597C18.2495 26.9291 18.7578 25.888 19.0331 25.2639C19.3363 24.5782 21.7355 19.833 22.7915 17.7461C23.0259 17.6561 23.2617 17.5646 23.5019 17.4716C24.2972 17.164 30.7902 14.6886 30.6218 13.5589C30.5119 12.8193 29.0546 12.1997 28.4116 12.0467L28.4145 12.0497Z" fill="white"/>
<path d="M14.5395 15.6038L18.7856 13.964C17.0529 13.2664 15.4461 12.6138 15.0814 12.4458C14.4721 12.1638 13.4205 11.7242 12.3088 11.7512C11.1971 11.7797 10.0473 12.2028 10.6112 12.6333C10.7723 12.7564 12.7189 14.2281 14.5395 15.6023V15.6038Z" fill="white"/>
</g>
<defs>
<clipPath id="clip0_22_142">
<rect width="35" height="47" fill="white"/>
</clipPath>
</defs>
</svg>
