<svg width="20" height="20" viewBox="0 0 20 20" fill="none" xmlns="http://www.w3.org/2000/svg">
<path d="M14.0625 5.3125L10 7.8125L5.9375 5.3125V0.9375H14.0625V5.3125Z" fill="#0496FF"/>
<path d="M12.5 0.9375V6.275L10 7.8125L7.5 6.275V0.9375H12.5Z" fill="#EE4848"/>
<path d="M9.99844 7.8125L12.0359 6.5625H11.9828C11.7873 6.48139 11.6026 6.37643 11.4328 6.25C11.0325 5.89578 10.5305 5.67705 9.99844 5.625C9.46967 5.6691 8.96802 5.87784 8.56406 6.22187C8.3943 6.3483 8.20957 6.45327 8.01406 6.53437H7.96094L9.99844 7.8125Z" fill="#CE3A3A"/>
<path d="M15.7963 12.6562C15.7963 11.9969 16.2869 11.2687 16.1088 10.675C15.9307 10.0812 15.0619 9.7625 14.6869 9.25C14.3119 8.7375 14.2807 7.85 13.7494 7.47187C13.2182 7.09375 12.39 7.34063 11.7744 7.14375C11.1588 6.94688 10.6588 6.25 9.99941 6.25C9.34003 6.25 8.80253 6.95 8.20878 7.14375C7.61503 7.3375 6.74628 7.1 6.23378 7.47187C5.72128 7.84375 5.68691 8.72188 5.29628 9.25C4.90566 9.77813 4.09316 10.0594 3.89316 10.675C3.69316 11.2906 4.19003 11.9969 4.19003 12.6562C4.19003 13.3156 3.69941 14.0438 3.89316 14.6375C4.08691 15.2312 4.93691 15.55 5.31191 16.0625C5.68691 16.575 5.71816 17.4625 6.24941 17.8406C6.78066 18.2188 7.60878 17.9719 8.22441 18.1531C8.84003 18.3344 9.34003 19.0625 9.99941 19.0625C10.6588 19.0625 11.1963 18.3625 11.79 18.1687C12.3838 17.975 13.2525 18.2125 13.765 17.8562C14.2775 17.5 14.3119 16.6062 14.7025 16.0781C15.0932 15.55 15.9057 15.2688 16.1057 14.6531C16.3057 14.0375 15.7963 13.3156 15.7963 12.6562Z" fill="#FCCD1D"/>
<path d="M10 17.1875C12.5025 17.1875 14.5312 15.1588 14.5312 12.6562C14.5312 10.1537 12.5025 8.125 10 8.125C7.49746 8.125 5.46875 10.1537 5.46875 12.6562C5.46875 15.1588 7.49746 17.1875 10 17.1875Z" fill="#F9A215"/>
<path d="M10.4269 10.3125L10.9019 11.1344C10.9364 11.1958 10.9839 11.2489 11.0411 11.2899C11.0984 11.331 11.1639 11.3589 11.2331 11.3719L12.1863 11.5625C12.2715 11.5772 12.3512 11.6148 12.4167 11.6713C12.4823 11.7277 12.5313 11.8009 12.5586 11.883C12.5859 11.9651 12.5903 12.053 12.5715 12.1375C12.5527 12.2219 12.5114 12.2997 12.4519 12.3625L11.7956 13.0563C11.7479 13.1066 11.7119 13.1669 11.6903 13.2328C11.6687 13.2988 11.662 13.3687 11.6706 13.4375L11.7831 14.375C11.7916 14.461 11.7773 14.5477 11.7415 14.6264C11.7057 14.705 11.6498 14.7729 11.5794 14.823C11.509 14.8731 11.4266 14.9037 11.3405 14.9117C11.2545 14.9198 11.1679 14.905 11.0894 14.8688L10.2113 14.4719C10.1465 14.4425 10.0761 14.4274 10.005 14.4274C9.93388 14.4274 9.86357 14.4425 9.79877 14.4719L8.92064 14.8688C8.84192 14.9065 8.75456 14.9225 8.66757 14.9152C8.58058 14.9079 8.49711 14.8776 8.42578 14.8273C8.35444 14.7769 8.29783 14.7085 8.26177 14.629C8.22571 14.5495 8.21151 14.4618 8.22064 14.375L8.33314 13.4375C8.34182 13.3687 8.33511 13.2988 8.31349 13.2328C8.29188 13.1669 8.25589 13.1066 8.20814 13.0563L7.55189 12.3625C7.49245 12.3001 7.45098 12.2228 7.43185 12.1388C7.41272 12.0548 7.41666 11.9672 7.44323 11.8852C7.4698 11.8033 7.51803 11.73 7.58282 11.6732C7.6476 11.6164 7.72653 11.5781 7.81127 11.5625L8.74877 11.3781C8.81799 11.3652 8.88354 11.3372 8.94077 11.2962C8.99801 11.2551 9.04554 11.202 9.08001 11.1406L9.57064 10.3125C9.61453 10.238 9.67712 10.1762 9.75221 10.1333C9.82729 10.0904 9.91228 10.0678 9.99876 10.0678C10.0853 10.0678 10.1702 10.0904 10.2453 10.1333C10.3204 10.1762 10.383 10.238 10.4269 10.3125Z" fill="#FCCD1D"/>
</svg>
