<svg width="35" height="47" viewBox="0 0 35 47" fill="none" xmlns="http://www.w3.org/2000/svg">
<g clip-path="url(#clip0_206_3401)">
<path d="M29.0015 30.956C32.6755 27.7202 35 22.964 35 17.6578C35 7.90669 27.163 0 17.4978 0C16.5601 0 15.6399 0.076868 14.7403 0.221735C6.38535 1.5551 0 8.85276 0 17.6578C0 20.3697 0.605861 22.941 1.68938 25.236C2.27509 26.4762 2.99963 27.6355 3.84103 28.6947C4.70696 29.7834 5.6989 30.7679 6.79121 31.6238C6.80037 31.6305 6.80916 31.6375 6.81575 31.6419C7.13883 31.8932 7.4707 32.1353 7.81172 32.364C15.1527 37.937 17.4696 47 17.4696 47C17.4696 47 19.8363 37.937 27.1777 32.364C27.185 32.3585 27.1927 32.3529 27.2 32.3474C27.533 32.1234 27.8575 31.888 28.1736 31.6419C28.1806 31.6375 28.1894 31.6305 28.1982 31.6238C28.2125 31.6127 28.2256 31.6002 28.2399 31.5891C28.4971 31.3869 28.7487 31.1777 28.9941 30.9619C28.9963 30.9601 28.9989 30.9579 29.0011 30.956H29.0015Z" fill="#EC3343"/>
<path d="M25.3526 17.656C25.3526 22.0308 21.8368 25.5778 17.4995 25.5778C14.3694 25.5778 11.6676 23.7304 10.4061 21.0563C9.91926 20.026 9.64746 18.8726 9.64746 17.6556C9.64746 13.705 12.513 10.4296 16.2621 9.8317C16.665 9.76666 17.0782 9.73303 17.4995 9.73303C21.8365 9.73303 25.3526 13.2804 25.3526 17.656Z" fill="#EE4848"/>
<path d="M17.5 8L8.5 11V12.5H26.5V11L17.5 8ZM8.5 14V15.5H10V23H8.5L7 26H28L26.5 23H25V15.5H26.5V14H8.5ZM14.5 15.5C15.2461 15.5 16 16.2989 16 17V23H13V17C13 16.209 13.7539 15.5 14.5 15.5ZM20.5 15.5C21.255 15.5 22 16.209 22 17V23H19V17C19 16.209 19.745 15.5 20.5 15.5Z" fill="white"/>
</g>
<defs>
<clipPath id="clip0_206_3401">
<rect width="35" height="47" fill="white"/>
</clipPath>
</defs>
</svg>
