<svg width="25" height="15" viewBox="0 0 25 15" fill="none" xmlns="http://www.w3.org/2000/svg">
<path d="M20.278 6.97588C18.4651 6.97588 16.9902 5.50098 16.9902 3.68813C16.9902 1.87529 18.4651 0.400391 20.278 0.400391C22.0908 0.400391 23.5657 1.87529 23.5657 3.68813C23.5657 5.50098 22.0908 6.97588 20.278 6.97588Z" fill="#2E9ADA"/>
<path d="M24.1668 14.6H16.389C15.9288 14.6 15.5557 14.2269 15.5557 13.7666V12.2582C15.5557 9.6543 17.6741 7.53594 20.2779 7.53594C22.8817 7.53594 25.0001 9.65435 25.0001 12.2582V13.7667C25.0001 14.2269 24.6271 14.6 24.1668 14.6Z" fill="#2E9ADA"/>
<path d="M12.4997 6.97588C10.6868 6.97588 9.21191 5.50098 9.21191 3.68813C9.21191 1.87529 10.6868 0.400391 12.4997 0.400391C14.3125 0.400391 15.7874 1.87529 15.7874 3.68813C15.7874 5.50098 14.3125 6.97588 12.4997 6.97588Z" fill="#60BFE1"/>
<path d="M16.3884 14.6H8.61069C8.15049 14.6 7.77734 14.2269 7.77734 13.7666V12.2582C7.77734 9.6543 9.89575 7.53594 12.4996 7.53594C15.1034 7.53594 17.2218 9.65435 17.2218 12.2582V13.7666C17.2218 14.2269 16.8487 14.6 16.3884 14.6Z" fill="#60BFE1"/>
<path d="M4.72231 6.97588C2.90947 6.97588 1.43457 5.50098 1.43457 3.68813C1.43457 1.87529 2.90947 0.400391 4.72231 0.400391C6.53516 0.400391 8.01006 1.87529 8.01006 3.68813C8.01006 5.50098 6.53516 6.97588 4.72231 6.97588Z" fill="#C7E5F4"/>
<path d="M8.61113 14.6H0.83335C0.373096 14.6 0 14.2269 0 13.7667V12.2582C0 9.65435 2.11841 7.53599 4.72222 7.53599C7.32603 7.53599 9.44443 9.6544 9.44443 12.2582V13.7667C9.44443 14.2269 9.07134 14.6 8.61113 14.6Z" fill="#C7E5F4"/>
</svg>
