<svg width="24" height="24" viewBox="0 0 24 24" fill="none" xmlns="http://www.w3.org/2000/svg">
<path d="M18.75 15.375C18.0523 15.3759 17.372 15.5926 16.8024 15.9954C16.2328 16.3983 15.8018 16.9675 15.5685 17.625H6.75C6.05381 17.625 5.38613 17.3484 4.89384 16.8562C4.40156 16.3639 4.125 15.6962 4.125 15C4.125 14.3038 4.40156 13.6361 4.89384 13.1438C5.38613 12.6516 6.05381 12.375 6.75 12.375H15.75C16.844 12.375 17.8932 11.9404 18.6668 11.1668C19.4404 10.3932 19.875 9.34402 19.875 8.25C19.875 7.15598 19.4404 6.10677 18.6668 5.33318C17.8932 4.5596 16.844 4.125 15.75 4.125H6.75C6.45163 4.125 6.16548 4.24353 5.9545 4.4545C5.74353 4.66548 5.625 4.95163 5.625 5.25C5.625 5.54837 5.74353 5.83452 5.9545 6.0455C6.16548 6.25647 6.45163 6.375 6.75 6.375H15.75C16.2473 6.375 16.7242 6.57254 17.0758 6.92417C17.4275 7.27581 17.625 7.75272 17.625 8.25C17.625 8.74728 17.4275 9.22419 17.0758 9.57583C16.7242 9.92746 16.2473 10.125 15.75 10.125H6.75C5.45707 10.125 4.21709 10.6386 3.30285 11.5529C2.38861 12.4671 1.875 13.7071 1.875 15C1.875 16.2929 2.38861 17.5329 3.30285 18.4471C4.21709 19.3614 5.45707 19.875 6.75 19.875H15.5685C15.7748 20.4583 16.1375 20.9737 16.6169 21.3648C17.0963 21.7559 17.674 22.0077 18.2868 22.0926C18.8997 22.1776 19.5241 22.0924 20.0918 21.8465C20.6595 21.6005 21.1487 21.2032 21.5059 20.698C21.863 20.1928 22.0744 19.5992 22.117 18.9819C22.1596 18.3647 22.0316 17.7476 21.7472 17.1982C21.4627 16.6488 21.0327 16.1881 20.5041 15.8666C19.9755 15.545 19.3687 15.375 18.75 15.375ZM18.75 19.875C18.5275 19.875 18.31 19.809 18.125 19.6854C17.94 19.5618 17.7958 19.3861 17.7106 19.1805C17.6255 18.975 17.6032 18.7488 17.6466 18.5305C17.69 18.3123 17.7972 18.1118 17.9545 17.9545C18.1118 17.7972 18.3123 17.69 18.5305 17.6466C18.7488 17.6032 18.975 17.6255 19.1805 17.7106C19.3861 17.7958 19.5618 17.94 19.6854 18.125C19.809 18.31 19.875 18.5275 19.875 18.75C19.8747 19.0483 19.756 19.3342 19.5451 19.5451C19.3342 19.756 19.0483 19.8747 18.75 19.875Z" fill="white"/>
</svg>
