<svg width="19" height="22" viewBox="0 0 19 22" fill="none" xmlns="http://www.w3.org/2000/svg">
<path d="M13.4576 12.4855C13.8609 11.9249 13.869 11.0834 13.3256 10.0897L14.038 9.02558C15.3393 9.1746 16.0372 8.73663 16.3443 8.17342L17.164 6.949C17.521 6.40874 17.5289 5.63364 17.0964 4.75848C16.222 2.98556 13.924 1.4414 11.9643 1.30886C10.3729 1.20122 9.93159 2.08868 9.93159 2.08868L9.10383 3.32518C8.71975 3.82049 8.58297 4.626 9.20615 5.76527C9.20615 5.76527 8.43447 6.918 8.49378 6.82939C7.36913 6.7006 6.59607 7.02766 6.23225 7.61468L5.42929 8.81413C5.01126 9.3532 4.97369 10.1586 5.43594 11.0957C6.31036 12.8686 8.60828 14.4128 10.568 14.5453C11.6118 14.6153 12.3409 14.2669 12.6703 13.6616L13.4576 12.4855Z" fill="#EE4848"/>
<path d="M13.489 12.439L12.6699 13.6626C12.341 14.2672 11.6114 14.6163 10.5676 14.5463C8.60785 14.4138 6.30993 12.8696 5.43551 11.0967C4.97325 10.1596 5.01083 9.35422 5.42886 8.81516L6.25663 7.57865C5.90124 8.11649 5.88686 8.88379 6.32421 9.76917C7.19863 11.5421 9.49656 13.0863 11.4563 13.2188C12.4364 13.2847 13.1328 12.9763 13.489 12.439ZM17.1641 6.94922C15.8873 8.87905 11.3202 6.95897 9.99848 4.27888C9.56167 3.39269 9.57605 2.62539 9.9309 2.08836L9.10313 3.32486C8.71905 3.82017 8.58227 4.62568 9.20545 5.76495L8.24449 7.20042L8.24932 7.20366C7.99133 7.56289 7.97688 8.08983 8.27683 8.69775C8.8596 9.87997 10.3917 10.9091 11.6985 10.9977C12.3762 11.0431 12.8546 10.8233 13.0826 10.4392L13.0898 10.4441L14.0394 9.02553C15.3407 9.17455 16.0387 8.73658 16.3457 8.17337L17.1641 6.94922Z" fill="#BE1E2D"/>
<path d="M6.81812 12.8284L3.83222 17.2886L3.83383 17.2897C3.83383 17.2897 3.62422 19.3402 3.62395 19.3423L5.4433 18.3672L6.96833 16.0891C7.19694 15.0698 7.28595 14.0795 7.22481 13.1566C7.08574 13.0507 6.94856 12.9437 6.81812 12.8284Z" fill="#213D35"/>
<path d="M7.22482 13.1566C7.28651 14.0786 7.19696 15.0698 6.96835 16.0891L8.4249 13.9133C8.00454 13.7031 7.60282 13.4458 7.22482 13.1566Z" fill="#060C0A"/>
</svg>
