<svg  viewBox="0 0 60 39" fill="none" xmlns="http://www.w3.org/2000/svg">
<path d="M54.942 1.67743C53.0507 1.23145 50.0748 1.2689 45.7867 2.91323C45.7867 2.91323 19.6999 12.9154 11.0065 16.2483C7.96698 17.4126 4.60278 9.42586 0.582467 10.9681C-0.826816 11.5094 0.649417 13.8652 1.60344 16.5104C2.41018 18.7403 3.09307 21.0757 3.36421 21.9371C4.58939 25.8249 8.73355 25.304 10.6583 25.0521C15.0201 24.4802 20.8146 22.6043 29.5782 19.3531C28.6476 23.6937 25.7019 37.468 25.5479 38.1999C25.2131 39.8034 27.8108 38.7582 29.7623 37.1003C31.7106 35.4423 32.8721 33.0797 33.5015 31.6635C34.1944 30.1076 39.6775 19.3395 42.0911 14.604C42.6267 14.3997 43.1656 14.192 43.7146 13.981C45.5322 13.2831 60.3716 7.66578 59.9866 5.10227C59.7355 3.42389 56.4048 2.01787 54.9353 1.67062L54.942 1.67743Z" fill="white"/>
<path d="M23.2314 9.74253L32.9357 6.02151C28.9757 4.43846 25.3035 2.95754 24.47 2.57625C23.0775 1.93622 20.674 0.938731 18.1332 1.00001C15.5925 1.06469 12.9648 2.02474 14.2535 3.0018C14.6218 3.28096 19.0705 6.62069 23.2314 9.73912V9.74253Z" fill="white"/>
</svg>
