<svg viewBox="0 0 45 45" fill="none" xmlns="http://www.w3.org/2000/svg">
<circle cx="22.5" cy="22.5" r="22.5" fill="#88C9F9"/>
<mask id="mask0_225_3542" style="mask-type:alpha" maskUnits="userSpaceOnUse" x="0" y="0" width="45" height="45">
<path d="M22.5 45C34.9264 45 45 34.9264 45 22.5C45 10.0736 34.9264 0 22.5 0C10.0736 0 0 10.0736 0 22.5C0 34.9264 10.0736 45 22.5 45Z" fill="#88C9F9"/>
</mask>
<g mask="url(#mask0_225_3542)">
<path d="M48.5435 18.0967C48.0658 17.7194 48.2044 16.2584 47.6555 16.2584H47.5935C47.0349 16.354 45.9318 17.691 45.569 17.691H45.5687C45.528 17.693 45.4904 17.6704 45.4731 17.6337C45.2822 17.242 46.2802 16.1055 45.4731 15.2462C44.666 14.3868 43.84 9.03842 42.1306 8.39394C42.1306 8.39394 43.5868 4.41157 41.5194 4.05352V4.05319C41.2719 4.00989 41.0211 3.98757 40.7696 3.98657C39.3943 3.98657 39.2607 4.86025 39.5232 5.30459C39.6997 5.61036 39.0076 6.67488 38.6205 6.67488H38.5872C38.2005 6.67488 37.3314 8.51322 37.1023 8.51322C36.8732 8.51322 35.4549 10.5473 35.4549 10.5473L36.1284 11.913L34.7627 12.7584L32.9244 11.8608L32.0027 10.686H33.8793C33.8793 10.686 34.8772 9.82162 34.7626 9.25338C34.6477 8.68513 31.0284 7.98328 31.0284 7.98328V7.32909L29.4142 7.01866C28.9276 7.55293 28.3777 8.02587 27.7764 8.42732C27.046 8.84268 24.6821 11.9753 24.3527 12.5483C23.8207 13.2654 23.1755 13.8909 22.4428 14.4009C22.137 14.5585 21.5738 14.5058 21.1155 14.9788C20.6572 15.4515 20.7574 17.925 20.7574 17.925C20.7574 17.925 21.2351 18.837 21.6504 18.8799C22.0898 18.8799 23.145 17.4473 23.145 17.4473C24.0999 19.5867 23.3502 20.131 23.503 20.9141C23.5936 21.3917 23.6509 21.5253 23.8898 21.5253L23.8894 21.5256C24.1666 21.4846 24.4407 21.427 24.7108 21.3537C25.7087 21.1722 25.7854 19.0808 25.7854 19.0808L26.1005 19.0045C26.1005 19.0045 26.9598 18.1688 27.0125 17.8584C27.0651 17.5479 26.32 16.655 26.32 16.655C26.32 16.655 26.3486 14.7451 26.8356 14.3866C27.3226 14.0285 28.2396 12.8967 28.0867 11.8032C28.0484 11.5167 28.12 11.4068 28.2585 11.4068C28.6453 11.4068 29.5336 12.2901 29.7244 12.5576C29.9776 12.9253 28.2156 14.8019 28.2156 14.8019C28.2156 14.8019 28.1629 15.5324 28.1393 16.3681C28.1393 16.8457 28.2349 16.9267 28.4544 16.9267C28.6739 16.9267 28.7981 16.8837 29.0416 16.8837H29.2804L29.2808 16.884C29.9783 16.8038 30.6611 16.6269 31.3103 16.3587C31.3103 16.3587 32.3082 16.5786 32.1027 17.0559C31.8975 17.5336 29.2948 17.9729 29.1422 18.7176C28.9893 19.4628 29.9493 19.9211 29.9206 20.2505C29.9206 20.2935 29.9206 20.3125 29.8823 20.3125C29.7724 20.3125 29.4383 19.7253 28.8794 19.7253H28.8797C28.8241 19.7206 28.7681 19.7206 28.7125 19.7253C27.9438 19.8828 28.1919 21.917 28.1729 22.1941C28.1539 22.4709 27.8098 22.3706 27.5807 22.5858V22.5855C27.5367 22.6225 27.4804 22.6414 27.4231 22.6381C27.1413 22.6381 26.702 22.3087 26.5638 22.2894C25.8606 22.5638 25.1885 22.9109 24.558 23.3256C24.543 23.3326 24.5257 23.3326 24.5103 23.3256C24.2858 23.3256 23.4598 22.6954 23.1973 22.6044V22.6048C22.8959 22.4625 22.5731 22.3703 22.2424 22.3323C22.1058 22.331 21.9713 22.364 21.8507 22.4279C21.373 22.6811 21.0916 23.0868 20.4181 23.0868C19.7449 23.0868 19.186 23.5404 18.6751 24.1803C18.1644 24.8205 17.0612 24.8441 16.0726 25.5222C15.8658 25.6835 15.614 25.7767 15.3518 25.7897C14.8362 25.7897 14.4972 25.3121 14.1437 25.0496C14.0345 24.974 13.9039 24.9353 13.771 24.9397C13.2444 24.9896 12.7621 25.2561 12.439 25.6751C12.2338 26.0428 13.1551 26.9309 13.7187 27.1364C14.2823 27.3416 14.1437 28.7026 14.1437 28.7026C14.1437 28.7026 13.6661 30.1828 13.308 30.5315V30.5312C13.1961 30.6031 13.0625 30.6338 12.9306 30.6171C12.0903 30.6171 10.2373 30.0249 9.98446 29.6192C9.82591 29.3584 9.54013 29.2018 9.23468 29.2085C9.10578 29.2082 8.97754 29.2325 8.85763 29.2801C8.59982 29.3804 8.70474 30.2877 8.49956 30.6172C7.92598 31.7559 7.42499 32.9298 7 34.1319C7 34.3944 8.61877 34.6096 8.61877 35.4356C8.61877 36.2616 9.79823 36.7916 11.078 36.8682H11.1496V36.8679C11.6882 36.8306 12.2018 36.6267 12.6191 36.2843C13.0368 35.9422 13.3376 35.4786 13.4798 34.9579C13.5325 34.2465 15.3231 33.7688 16.0726 33.086C16.6122 32.6084 16.5166 31.9639 17.0612 31.9639C17.4549 32.0115 17.8329 32.1451 18.169 32.3556C18.8418 32.1477 19.538 32.0258 20.2415 31.9925C20.7192 31.9925 21.1535 32.0974 21.3064 32.4079C21.7504 33.3152 21.0869 33.9217 21.784 34.4947C22.4812 35.0676 24.5966 37.7849 24.1333 38.6729C23.9804 38.9737 24.0663 39.1169 24.2575 39.1169C24.6349 39.1169 25.418 38.5727 25.6185 37.5744C25.9243 36.0605 24.8021 34.3224 23.9807 33.3149C23.3599 32.5461 23.8615 31.7248 24.4584 31.7248L24.4577 31.7251C24.6706 31.7324 24.8701 31.8297 25.007 31.9926C25.7231 32.7756 27.3563 33.8692 27.0508 34.8098C26.7451 35.7504 27.5618 37.4169 28.1777 37.5748C28.2799 37.5938 28.3845 37.5988 28.4881 37.5891C29.2042 37.5891 30.398 37.1114 30.398 36.2045C30.398 35.4883 31.0905 35.1922 31.6634 35.1922V35.1919C31.8862 35.1759 32.1077 35.2385 32.2889 35.3688C32.3912 35.447 32.5188 35.4847 32.6473 35.4737C33.1986 35.4034 33.7342 35.2422 34.2325 34.9964C34.2325 34.9964 32.6663 33.22 32.9528 32.9096C33.5213 31.9632 34.0303 30.9826 34.4759 29.9728C34.5602 29.7886 34.7517 29.6773 34.9536 29.696C35.3976 29.696 36.0041 30.0161 36.4292 30.0161V30.0157C36.6467 30.047 36.8525 29.9088 36.9065 29.696C37.193 28.8316 38.979 27.9959 39.2941 27.9959H39.3417C39.38 28.1534 38.9167 30.0873 39.3417 30.4597C39.6854 30.7655 44.6232 31.386 46.557 31.386V31.3864C46.8162 31.4187 47.0793 31.384 47.3211 31.2858C47.5979 30.8941 44.9049 28.4205 44.9049 28.4205C44.9049 28.4205 44.5945 27.5468 45.0195 27.1934C45.4445 26.8403 46.7338 25.2215 46.7338 24.6963C46.7338 24.171 44.781 22.3087 44.824 21.9553C44.8666 21.6019 49.9761 20.1312 49.9761 19.1903C49.9761 18.2497 49.0212 18.4885 48.5435 18.0968L48.5435 18.0967Z" fill="#5C913B"/>
<path d="M9.65014 21.5681H9.68844C9.95091 21.5681 10.2137 21.5441 10.4429 21.5441C10.9205 21.5441 11.2736 21.5681 11.2736 21.5681L12.4484 20.1068C12.516 20.1378 12.5889 20.1558 12.6632 20.1594C12.7681 20.1594 12.878 20.1068 12.878 19.897L12.8784 18.6455H11.6846L9.94159 20.1068C9.94159 20.1068 8.90999 21.5681 9.65014 21.5681L9.65014 21.5681Z" fill="#5C913B"/>
<path d="M12.4195 9.60211C12.5294 9.93653 13.2742 10.0414 13.9044 10.0414H13.9048C14.2125 10.0691 14.523 10.0268 14.8121 9.91721C14.9124 9.75965 15.4233 9.72634 15.4233 9.14378C15.4233 8.56121 15.5283 8.08856 15.2704 7.98334C15.0126 7.87841 13.8378 7.56798 13.8378 7.56798C13.6646 7.61261 13.4867 7.63659 13.3079 7.63959C13.0168 7.63959 12.711 7.55366 12.711 7.20491C12.711 6.97575 12.6107 6.89914 12.4722 6.89914V6.89947C12.219 6.94444 11.9799 7.04936 11.775 7.20491C11.4256 7.42608 11.2997 7.87542 11.4839 8.2458C11.8663 8.64484 12.1824 9.10285 12.4196 9.60211L12.4195 9.60211Z" fill="#5C913B"/>
<path d="M15.0795 15.513C15.3583 15.956 15.4919 16.4753 15.4612 16.9979C15.385 17.2747 14.85 18.6837 15.1938 19.0367L15.1941 19.0371C15.409 19.3242 15.5046 19.6836 15.4612 20.0397C15.4612 20.0397 15.1175 20.7798 14.855 20.7798H14.8121C14.7851 20.7755 14.7578 20.7755 14.7308 20.7798C14.473 20.7798 14.1625 21.1332 14.1625 21.1332L13.9287 21.8304L14.6975 22.4942C14.6975 22.4942 15.5475 22.5801 16.2543 22.5801H16.254C16.5305 22.5941 16.8076 22.5651 17.0754 22.4942C17.553 22.3033 17.0754 21.5393 17.0754 21.5393L16.5501 21.3004L16.8079 20.7705L17.6483 19.7773C17.3305 19.1677 17.0744 18.5279 16.8845 17.8671C16.7776 17.1716 16.765 16.4651 16.8462 15.7659C16.9225 15.3362 16.3449 14.4336 16.3449 14.4336L15.4996 14.4339C15.4996 14.4339 14.7738 15.0021 15.0795 15.5131L15.0795 15.513Z" fill="#5C913B"/>
<path d="M35.4549 0.992041C35.9325 1.38376 36.3382 2.20484 36.9494 3.2604C37.088 3.49423 37.2262 3.58516 37.3601 3.58516C37.8377 3.58516 38.2577 2.43904 38.2577 2.43904L37.4127 1.14967C37.4127 1.14967 37.5273 0.404888 36.5294 -0.536119C35.5315 -1.47673 36.5294 -2.80448 36.5294 -2.80448V-2.80414C36.3052 -2.92738 36.0544 -2.99467 35.7986 -3C34.7527 -3 34.1895 -1.72496 34.1895 -1.43384C34.4313 -0.543537 34.863 0.28418 35.4549 0.992007L35.4549 0.992041Z" fill="#5C913B"/>
<path d="M25.2454 1.65092C25.0925 2.86867 26.4775 3.56081 26.4775 3.56081L26.9551 1.91339L27.5327 1.29751L26.9168 0.280233C26.9168 0.280233 27.146 -0.794342 25.9189 -0.794342C24.6918 -0.794342 24.0756 -0.574839 24.3097 0.280233L24.3094 0.280566C24.6228 0.322868 24.9036 0.496402 25.0822 0.75755C25.2607 1.01902 25.32 1.34345 25.2454 1.65093L25.2454 1.65092Z" fill="#5C913B"/>
<path d="M21.8683 39.1167C21.8683 39.1167 22.0975 38.1617 21.324 37.8609V37.8606C21.2111 37.8179 21.0912 37.7966 20.9706 37.7986C20.1399 37.7986 18.9365 38.5674 18.9365 38.5674C18.9365 39.5223 20.4167 40 20.4167 40L21.8683 39.1167Z" fill="#5C913B"/>
</g>
</svg>
