<svg width="18" height="18" viewBox="0 0 18 18" fill="none" xmlns="http://www.w3.org/2000/svg">
<path d="M7.37207 14.7513C8.88985 14.7513 10.292 14.2888 11.4629 13.5082L15.6982 17.7435C16.0308 18.076 16.5801 18.076 16.9269 17.7435L17.7508 16.9196C18.0833 16.5871 18.0833 16.0378 17.7508 15.6909L13.501 11.4701C14.2814 10.2992 14.7441 8.89705 14.7441 7.37927C14.7441 3.31741 11.4339 0.00720215 7.37207 0.00720215C3.31021 0.00720215 0 3.31741 0 7.37927C0 11.441 3.29575 14.7513 7.37207 14.7513ZM7.37207 2.89821C9.84389 2.89821 11.8531 4.90746 11.8531 7.37927C11.8531 9.85109 9.84389 11.8603 7.37207 11.8603C4.90026 11.8603 2.89101 9.85109 2.89101 7.37927C2.89101 4.90746 4.90026 2.89821 7.37207 2.89821Z" fill="white"/>
</svg>
