<svg width="20" height="20" viewBox="0 0 20 20" fill="none" xmlns="http://www.w3.org/2000/svg">
<path d="M2.568 0H17.4333C18.8453 0 20 1.15474 20 2.5675V17.4338C20 18.8459 18.8453 20 17.4333 20H2.568C1.156 20 0 18.8459 0 17.4338V2.5675C0 1.15474 1.156 0 2.568 0ZM14.57 2.22148C14.074 2.22148 13.6693 2.62751 13.6693 3.12287V5.27702C13.6693 5.77305 14.074 6.17775 14.57 6.17775H16.83C17.3253 6.17775 17.7307 5.77238 17.7307 5.27702V3.12287C17.7307 2.62751 17.3253 2.22148 16.83 2.22148H14.57ZM17.7393 8.4579H15.9793C16.146 9.00327 16.2367 9.57797 16.2367 10.1753C16.2367 13.5009 13.452 16.1984 10.0187 16.1984C6.58533 16.1984 3.802 13.5009 3.802 10.1753C3.802 9.57797 3.89333 9.00327 4.05933 8.4579H2.22333V16.9071C2.22333 17.3445 2.58067 17.7005 3.018 17.7005H16.9447C17.382 17.7005 17.7387 17.3445 17.7387 16.9071V8.4579H17.7393ZM10.0193 6.06507C7.802 6.06507 6.00333 7.80719 6.00333 9.958C6.00333 12.1088 7.802 13.8503 10.0193 13.8503C12.2367 13.8503 14.0367 12.1068 14.0367 9.958C14.0367 7.80919 12.238 6.06507 10.0193 6.06507Z" fill="white"/>
</svg>
